<svg version="1" xmlns="http://www.w3.org/2000/svg" width="405.333" height="405.333" viewBox="0 0 304.000000 304.000000"><path d="M0 152v152h304V0H0v152zM155.3 19.4c1.8.7 4.7 3 6.5 5 3.3 3.8 10.7 17.8 15.7 29.6 1.5 3.6 4.3 9.8 6.1 13.8 1.9 4.1 3.4 7.5 3.4 7.7 0 .2 3.6 8.1 8.1 17.5l8.1 17.2-8.3 8.4c-4.6 4.6-8.9 8.4-9.5 8.4-1.8 0-3.9-4.1-18.8-37-7.6-16.8-14.3-31.1-15-31.8-1-1-3.7 4-13.6 25.5-6.8 14.7-14.6 31.5-17.3 37.3-2.7 5.8-10.7 22.9-17.7 38-11 23.6-18.9 40.6-38.9 83.5-3.9 8.3-9 13.9-13.7 15.1-3.8 1-10.4-.2-13.3-2.4-1.4-1-3.7-3.9-5.1-6.3l-2.5-4.4v-145l2.5-4.3c3.1-5.5 8-8.5 13.6-8.5 3.4 0 5.6.8 9.8 3.7C63 95.6 80 113.4 80 116c0 3.5-6.6 19-9.7 22.9-.2.3-3.9-3.1-8.3-7.4l-8-8 .1 40.5v40.5l4.2-8.5c2.3-4.7 6.2-12.8 8.6-18 2.4-5.2 8.9-19.2 14.4-31 5.4-11.8 11.3-24.4 12.9-28 1.7-3.6 4.2-9 5.5-12 1.4-3 4.5-9.8 7-15 2.5-5.2 7.9-16.9 12-26 17.4-38 20.4-43.3 26.4-46.3 4.2-2 6-2.1 10.2-.3zm106.8 67.7c4.4 1.5 7.6 4.5 10.1 9.4 1.9 3.7 2 5.6 1.9 36.5-.2 52.9-1.7 110.9-3 114.2-1 2.6-6.5 8-9.8 9.7-3.3 1.7-10.4 1.3-13.4-.7-3.5-2.3-7-6.6-10.7-13.2-4.4-7.7-27.2-58.2-27.2-60 0-1.6 14.2-18.2 16-18.8.5-.2 5.6 9 11.2 20.5l10.3 20.8.3-40.4c.1-22.2 0-40.7-.4-41-.3-.3-10.1 9.1-21.6 20.9-64.5 65.8-72.9 74.1-74.6 73.6-1-.4-10.2-9.1-20.5-19.4-17.7-17.8-18.7-19-18.7-22.6 0-3.8 7.1-20.6 8.7-20.6.4 0 7.4 6.8 15.4 15.2l14.6 15.3 49.4-49.7c33.5-33.7 50.2-49.8 51.9-50.1 4.7-.8 6.7-.7 10.1.4z"/></svg>