<svg viewBox="0 0 943.4 536.7" preserveAspectRatio="none" xmlns="http://www.w3.org/2000/svg"><defs><clipPath clipPathUnits="userSpaceOnUse" id="a"><path d="M6391.67 4092.51c0 75.26-61.58 136.83-136.83 136.83H4471.59l104.84-218.76h1630.55V646.922l4.02-47.281 69.15-144.301h111.52z"/></clipPath><clipPath clipPathUnits="userSpaceOnUse" id="c"><path d="M3048.24 455.34v-70.949h966.19v70.949z"/></clipPath><clipPath clipPathUnits="userSpaceOnUse" id="e"><path d="M6748.86 218.211H317.348C173.152 236.371 61.305 288.602 0 306.82h7066.22c-18.29-7.468-129.57-81.09-317.36-88.609z"/></clipPath><clipPath clipPathUnits="userSpaceOnUse" id="g"><path d="M0 313.441h7066.22V455.34H4012.67v-30.418c0-20.91-23.8-38.012-52.9-38.012h-856.84c-29.09 0-52.9 17.102-52.9 38.012v30.418H0V313.441z"/></clipPath><clipPath clipPathUnits="userSpaceOnUse" id="h"><path d="M0 313.441h7066.22V455.34H4012.67v-30.418c0-20.91-23.8-38.012-52.9-38.012h-856.84c-29.09 0-52.9 17.102-52.9 38.012v30.418H0V313.441"/></clipPath><clipPath clipPathUnits="userSpaceOnUse" id="i"><path d="M7075.68 104.219H9.46c18.286 9.601 129.567 104.312 317.36 113.992h6431.51c144.2-23.371 256.04-90.559 317.35-113.992"/></clipPath><linearGradient x1="0" y1="0" x2="1" y2="0" gradientUnits="userSpaceOnUse" gradientTransform="scale(-4228.42 4228.42) rotate(60 -1.027 -1.358)" spreadMethod="pad" id="b"><stop style="stop-opacity:1;stop-color:#231f20" offset="0"/><stop style="stop-opacity:1;stop-color:#231f20" offset=".799"/><stop style="stop-opacity:1;stop-color:#a7a5a6" offset="1"/></linearGradient><linearGradient x1="0" y1="0" x2="1" y2="0" gradientUnits="userSpaceOnUse" gradientTransform="matrix(0 88.6114 88.6114 0 3533.11 218.21)" spreadMethod="pad" id="f"><stop style="stop-opacity:1;stop-color:#231f20" offset="0"/><stop style="stop-opacity:1;stop-color:#7a848d" offset=".6"/><stop style="stop-opacity:1;stop-color:#a3a9af" offset="1"/></linearGradient><linearGradient x1="0" y1="0" x2="1" y2="0" gradientUnits="userSpaceOnUse" gradientTransform="matrix(0 -113.992 -113.992 0 3542.57 218.21)" spreadMethod="pad" id="j"><stop style="stop-opacity:1;stop-color:#231f20" offset="0"/><stop style="stop-opacity:1;stop-color:#7b838d" offset=".146"/><stop style="stop-opacity:1;stop-color:#ffffff" offset="1"/></linearGradient><radialGradient cx="0" cy="0" r="1" gradientUnits="userSpaceOnUse" gradientTransform="matrix(597.748 0 0 -341.609 3524.41 538.11)" spreadMethod="pad" id="d"><stop style="stop-opacity:1;stop-color:#d1d3d6" offset="0"/><stop style="stop-opacity:1;stop-color:#d1d3d6" offset=".632"/><stop style="stop-opacity:1;stop-color:#939ba2" offset=".791"/><stop style="stop-opacity:1;stop-color:#939ba2" offset=".821"/><stop style="stop-opacity:1;stop-color:#050301" offset="1"/></radialGradient></defs><g class="laptop"><path d="M88.47 508.56V21.081C88.47 9.63 97.785.313 109.235.313h723.694c11.45 0 20.765 9.316 20.765 20.768v487.48H88.47m738.077-28.068H114.943V32.005h711.605v448.488" style="fill:rgb(23, 19, 22);fill-opacity:1;fill-rule:evenodd;stroke:none"/><path d="M88.785 508.245h764.593V21.081C853.378 9.804 844.206.63 832.93.63H109.235c-11.277 0-20.45 9.175-20.45 20.452zm765.224.63H88.154V21.082C88.154 9.456 97.61 0 109.234 0H832.93c11.624 0 21.079 9.457 21.079 21.082v487.795" style="fill:rgb(168, 170, 175);fill-opacity:1;fill-rule:nonzero;stroke:none"/><g clip-path="url(#a)" transform="matrix(.13333 0 0 -.13333 0 565.787)"><path d="M6391.67 4092.51c0 75.26-61.58 136.83-136.83 136.83H4471.59l104.84-218.76h1630.55V646.922l4.02-47.281 69.15-144.301h111.52v3637.17" style="fill:url(#b);fill-opacity:1;fill-rule:nonzero;stroke:none"/></g><path d="M474.153 18.645c0 2.364-2.56 3.841-4.606 2.659a3.07 3.07 0 01-1.535-2.659c0-2.363 2.559-3.841 4.606-2.659a3.07 3.07 0 011.535 2.659" style="fill:#434549;fill-opacity:1;fill-rule:nonzero;stroke:none"/><path d="M468.01 18.332c0 .287.059.557.14.817a2.506 2.506 0 002.05 1.054c1.377 0 2.493-1.094 2.493-2.442 0-.922-.53-1.716-1.301-2.132a2.959 2.959 0 00-.563-.054c-1.556 0-2.817 1.234-2.817 2.757" style="fill:#0e0c0a;fill-opacity:1;fill-rule:nonzero;stroke:none"/><g clip-path="url(#c)" transform="matrix(.13333 0 0 -.13333 0 565.787)"><path d="M3048.24 455.34v-70.949h966.19v70.949h-966.19" style="fill:url(#d);fill-opacity:1;fill-rule:nonzero;stroke:none"/></g><path d="M535.238 514.418H406.433v-.503h128.805v.503" style="fill:#f5f5f4;fill-opacity:1;fill-rule:nonzero;stroke:none"/><g clip-path="url(#e)" transform="matrix(.13333 0 0 -.13333 0 565.787)"><path d="M6748.86 218.211H317.348C173.152 236.371 61.305 288.602 0 306.82h7066.22c-18.29-7.468-129.57-81.09-317.36-88.609" style="fill:url(#f);fill-opacity:1;fill-rule:nonzero;stroke:none"/></g><path d="M942.164 523.995H0v.882h942.163v-.882" style="fill:#8f959c;fill-opacity:1;fill-rule:nonzero;stroke:none"/><g clip-path="url(#g)" transform="matrix(.13333 0 0 -.13333 0 565.787)"><g clip-path="url(#h)"><path d="M0 313.514v71.056h11.968c0-23.722-.11-47.335-.11-71.056H-.003z" style="fill:#4f5259;fill-opacity:1;fill-rule:nonzero;stroke:none"/><path d="M11.861 313.514c0 23.721.11 47.334.11 71.056h9.489c-.11-23.722-.32-47.335-.32-71.056h-9.272z" style="fill:#6b6b71;fill-opacity:1;fill-rule:nonzero;stroke:none"/><path d="M21.133 313.514c0 23.721.22 47.334.32 71.056h7.655c-.22-23.722-.54-47.335-.54-71.056h-7.44z" style="fill:#89868a;fill-opacity:1;fill-rule:nonzero;stroke:none"/><path d="M28.573 313.514c0 23.721.32 47.334.54 71.056h6.685c-.32-23.722-.54-47.335-.65-71.056h-6.577z" style="fill:#a5a2a4;fill-opacity:1;fill-rule:nonzero;stroke:none"/><path d="M35.15 313.514c.11 23.721.32 47.334.65 71.056h6.793c-.43-23.722-.75-47.335-.75-71.056h-6.685z" style="fill:#bebbbd;fill-opacity:1;fill-rule:nonzero;stroke:none"/><path d="M41.835 313.514c0 23.721.32 47.334.75 71.056h7.656c-.54-23.722-.97-47.335-.97-71.056h-7.44z" style="fill:#d2d2d3;fill-opacity:1;fill-rule:nonzero;stroke:none"/><path d="M49.275 313.514c0 23.721.43 47.334.97 71.056h9.38c-.54-23.722-1.078-47.335-1.078-71.056h-9.273z" style="fill:#e2e2e3;fill-opacity:1;fill-rule:nonzero;stroke:none"/><path d="M58.548 313.514c0 23.721.54 47.334 1.078 71.056h12.076c-.65-23.722-1.186-47.335-1.293-71.056H58.548z" style="fill:#ececed;fill-opacity:1;fill-rule:nonzero;stroke:none"/><path d="M70.409 313.514c.11 23.721.65 47.334 1.293 71.056h10.352c-.65-23.722-1.294-47.335-1.294-71.056H70.409z" style="fill:#eff1f1;fill-opacity:1;fill-rule:nonzero;stroke:none"/><path d="M80.76 313.514c0 23.721.65 47.334 1.294 71.056h12.723c-.65-23.722-1.294-47.335-1.402-71.056H80.76z" style="fill:#e9eaeb;fill-opacity:1;fill-rule:nonzero;stroke:none"/><path d="M93.375 313.514c.11 23.721.75 47.334 1.402 71.056h29.975c-.54-23.722-1.294-47.335-1.402-71.056H93.375z" style="fill:#dad9da;fill-opacity:1;fill-rule:nonzero;stroke:none"/><path d="M123.35 313.514c.11 23.721.86 47.334 1.402 71.056h32.562c-.65-23.722-1.509-47.335-1.509-71.056H123.35z" style="fill:#aeaeb2;fill-opacity:1;fill-rule:nonzero;stroke:none"/><path d="M155.805 313.514c0 23.721.86 47.334 1.509 71.056h15.742c-.65-23.722-1.509-47.335-1.617-71.056h-15.634z" style="fill:#868890;fill-opacity:1;fill-rule:nonzero;stroke:none"/><path d="M171.439 313.514c.11 23.721.97 47.334 1.617 71.056h14.557c-.65-23.722-1.51-47.335-1.618-71.056h-14.556z" style="fill:#7a7e87;fill-opacity:1;fill-rule:nonzero;stroke:none"/><path d="M185.995 313.514c.11 23.721.97 47.334 1.618 71.056h20.378c-.65-23.722-1.617-47.335-1.725-71.056h-20.271z" style="fill:#767b84;fill-opacity:1;fill-rule:nonzero;stroke:none"/><path d="M206.266 313.514c.11 23.721 1.078 47.334 1.725 71.056h26.848c-.65-23.722-1.617-47.335-1.725-71.056h-26.848z" style="fill:#797e86;fill-opacity:1;fill-rule:nonzero;stroke:none"/><path d="M233.114 313.514c.11 23.721 1.078 47.334 1.725 71.056h63.724c-.65-23.722-1.725-47.335-1.725-71.056h-63.724z" style="fill:#83878e;fill-opacity:1;fill-rule:nonzero;stroke:none"/><path d="M296.838 313.514c0 23.721 1.078 47.334 1.725 71.056h60.92c-.65-23.722-1.833-47.335-1.833-71.056h-60.812z" style="fill:#a5a5aa;fill-opacity:1;fill-rule:nonzero;stroke:none"/><path d="M357.65 313.514c0 23.721 1.186 47.334 1.833 71.056h23.398c-.65-23.722-1.941-47.335-1.941-71.056h-23.29z" style="fill:#c9c9cc;fill-opacity:1;fill-rule:nonzero;stroke:none"/><path d="M380.94 313.514c0 23.721 1.294 47.334 1.941 71.056h15.31c-.65-23.722-1.94-47.335-2.048-71.056H380.94z" style="fill:#d6d7d9;fill-opacity:1;fill-rule:nonzero;stroke:none"/><path d="M396.143 313.514h2652.561c-.43 23.721-.75 47.334-.86 71.056H398.194c-.65-23.722-1.94-47.335-2.048-71.056z" style="fill:#dbdcde;fill-opacity:1;fill-rule:nonzero;stroke:none"/><path d="M3048.704 313.514h23.937c-2.157 18.653-3.99 37.199-5.715 55.853l-19.085 15.203c.11-23.722.43-47.335.86-71.056z" style="fill:#dbdcde;fill-opacity:1;fill-rule:nonzero;stroke:none"/><path d="M3072.641 313.514h69.977c-3.127 12.292-6.146 24.476-9.057 36.768-27.711 0-52.834 8.626-66.635 19.085 1.725-18.654 3.558-37.2 5.715-55.853z" style="fill:#dbdcde;fill-opacity:1;fill-rule:nonzero;stroke:none"/><path d="M3142.618 313.514h776.867c3.234 12.292 6.254 24.476 9.704 36.768h-795.628c2.911-12.292 5.93-24.476 9.057-36.768z" style="fill:#dbdcde;fill-opacity:1;fill-rule:nonzero;stroke:none"/><path d="M3919.485 313.514h69.977c2.157 18.653 4.097 37.199 6.362 55.853-13.802-10.459-38.925-19.085-66.635-19.085-3.45-12.292-6.47-24.476-9.704-36.768z" style="fill:#dbdcde;fill-opacity:1;fill-rule:nonzero;stroke:none"/><path d="M3989.462 313.514h23.937c.43 23.721.86 47.334 1.509 71.056a253715.08 253715.08 0 00-19.084-15.203c-2.265-18.654-4.205-37.2-6.362-55.853z" style="fill:#dbdcde;fill-opacity:1;fill-rule:nonzero;stroke:none"/><path d="M4013.399 313.514h2655.149c-.11 23.721-1.186 47.334-1.294 71.056H4014.908c-.65-23.722-1.078-47.335-1.509-71.056z" style="fill:#dbdcde;fill-opacity:1;fill-rule:nonzero;stroke:none"/><path d="M6668.548 313.514c-.11 23.721-1.186 47.334-1.294 71.056h14.987c.11-23.722 1.186-47.335 1.186-71.056h-14.879z" style="fill:#dbdcde;fill-opacity:1;fill-rule:nonzero;stroke:none"/><path d="M6683.427 313.514c0 23.721-1.078 47.334-1.186 71.056h20.81c.11-23.722 1.186-47.335 1.186-71.056h-20.81z" style="fill:#d6d7d9;fill-opacity:1;fill-rule:nonzero;stroke:none"/><path d="M6704.237 313.514c0 23.721-1.078 47.334-1.186 71.056h54.235c0-23.722.97-47.335 1.078-71.056h-54.127z" style="fill:#c9c9cc;fill-opacity:1;fill-rule:nonzero;stroke:none"/><path d="M6758.364 313.514c-.11 23.721-1.078 47.334-1.078 71.056h62.43c.11-23.722.97-47.335.97-71.056h-62.322z" style="fill:#a5a5aa;fill-opacity:1;fill-rule:nonzero;stroke:none"/><path d="M6820.686 313.514c0 23.721-.86 47.334-.97 71.056h31.161c.11-23.722.86-47.335.97-71.056h-31.161z" style="fill:#83878e;fill-opacity:1;fill-rule:nonzero;stroke:none"/><path d="M6851.847 313.514c-.11 23.721-.86 47.334-.97 71.056h29.436c.11-23.722.86-47.335.86-71.056h-29.328z" style="fill:#797e86;fill-opacity:1;fill-rule:nonzero;stroke:none"/><path d="M6881.175 313.514c0 23.721-.75 47.334-.86 71.056h17.467c0-23.722.76-47.335.76-71.056h-17.36z" style="fill:#767b84;fill-opacity:1;fill-rule:nonzero;stroke:none"/><path d="M6898.535 313.514c0 23.721-.76 47.334-.76 71.056h16.713c0-23.722.75-47.335.75-71.056h-16.712z" style="fill:#7a7e87;fill-opacity:1;fill-rule:nonzero;stroke:none"/><path d="M6915.247 313.514c0 23.721-.75 47.334-.75 71.056h30.621c0-23.722.65-47.335.65-71.056h-30.514z" style="fill:#868890;fill-opacity:1;fill-rule:nonzero;stroke:none"/><path d="M6945.761 313.514c0 23.721-.65 47.334-.65 71.056h25.339c0-23.722.65-47.335.65-71.056h-25.339z" style="fill:#aeaeb2;fill-opacity:1;fill-rule:nonzero;stroke:none"/><path d="M6971.1 313.514c0 23.721-.65 47.334-.65 71.056h10.243c0-23.722.54-47.335.54-71.056h-10.135z" style="fill:#dad9da;fill-opacity:1;fill-rule:nonzero;stroke:none"/><path d="M6981.235 313.514c0 23.721-.54 47.334-.54 71.056h8.303c0-23.722.54-47.335.54-71.056h-8.303z" style="fill:#e9eaeb;fill-opacity:1;fill-rule:nonzero;stroke:none"/><path d="M6989.538 313.514c0 23.721-.54 47.334-.54 71.056h12.723c0-23.722.54-47.335.54-71.056h-12.723z" style="fill:#eff1f1;fill-opacity:1;fill-rule:nonzero;stroke:none"/><path d="M7002.261 313.514c0 23.721-.54 47.334-.54 71.056h10.135c0-23.722.43-47.335.43-71.056h-10.027z" style="fill:#ececed;fill-opacity:1;fill-rule:nonzero;stroke:none"/><path d="M7012.288 313.514c0 23.721-.43 47.334-.43 71.056h8.302c0-23.722.32-47.335.32-71.056h-8.195z" style="fill:#e2e2e3;fill-opacity:1;fill-rule:nonzero;stroke:none"/><path d="M7020.483 313.514c0 23.721-.32 47.334-.32 71.056h7.44c0-23.722.22-47.335.22-71.056h-7.332z" style="fill:#d2d2d3;fill-opacity:1;fill-rule:nonzero;stroke:none"/><path d="M7027.815 313.514c0 23.721-.22 47.334-.22 71.056h7.44c0-23.722.22-47.335.22-71.056h-7.44z" style="fill:#bebbbd;fill-opacity:1;fill-rule:nonzero;stroke:none"/><path d="M7035.255 313.514c0 23.721-.22 47.334-.22 71.056h8.302c0-23.722.11-47.335.11-71.056h-8.194z" style="fill:#a5a2a4;fill-opacity:1;fill-rule:nonzero;stroke:none"/><path d="M7043.449 313.514c0 23.721-.11 47.334-.11 71.056h10.028c0-23.722.11-47.335.11-71.056h-10.028z" style="fill:#89868a;fill-opacity:1;fill-rule:nonzero;stroke:none"/><path d="M7053.477 313.514c0 23.721-.11 47.334-.11 71.056h12.723v-71.056h-12.615z" style="fill:#6b6b71;fill-opacity:1;fill-rule:nonzero;stroke:none"/><path d="M0 384.57v70.84h12.184c0-23.614-.11-47.227-.22-70.84H-.004z" style="fill:#4f5259;fill-opacity:1;fill-rule:nonzero;stroke:none"/><path d="M11.968 384.57c.11 23.613.22 47.226.22 70.84h9.596c-.11-23.614-.21-47.227-.32-70.84h-9.489z" style="fill:#6b6b71;fill-opacity:1;fill-rule:nonzero;stroke:none"/><path d="M21.457 384.57c.11 23.613.21 47.226.32 70.84h7.764c0-23.614-.32-47.227-.43-70.84h-7.655z" style="fill:#89868a;fill-opacity:1;fill-rule:nonzero;stroke:none"/><path d="M29.112 384.57c.11 23.613.43 47.226.43 70.84h6.9c0-23.614-.32-47.227-.65-70.84h-6.685z" style="fill:#a5a2a4;fill-opacity:1;fill-rule:nonzero;stroke:none"/><path d="M35.797 384.57c.32 23.613.65 47.226.65 70.84h6.901c0-23.614-.32-47.227-.75-70.84h-6.793z" style="fill:#bebbbd;fill-opacity:1;fill-rule:nonzero;stroke:none"/><path d="M42.59 384.57c.43 23.613.75 47.226.75 70.84h7.763c0-23.614-.43-47.227-.86-70.84h-7.656z" style="fill:#d2d2d3;fill-opacity:1;fill-rule:nonzero;stroke:none"/><path d="M50.246 384.57c.43 23.613.86 47.226.86 70.84h9.597c0-23.614-.54-47.227-1.079-70.84h-9.38z" style="fill:#e2e2e3;fill-opacity:1;fill-rule:nonzero;stroke:none"/><path d="M59.626 384.57c.54 23.613 1.079 47.226 1.079 70.84h12.184c0-23.614-.54-47.227-1.187-70.84H59.626z" style="fill:#ececed;fill-opacity:1;fill-rule:nonzero;stroke:none"/><path d="M71.702 384.57c.65 23.613 1.187 47.226 1.187 70.84h10.566c-.11-23.614-.75-47.227-1.401-70.84H71.702z" style="fill:#eff1f1;fill-opacity:1;fill-rule:nonzero;stroke:none"/><path d="M82.054 384.57c.65 23.613 1.293 47.226 1.401 70.84h12.831c-.11-23.614-.97-47.227-1.509-70.84H82.054z" style="fill:#e9eaeb;fill-opacity:1;fill-rule:nonzero;stroke:none"/><path d="M94.777 384.57c.54 23.613 1.401 47.226 1.509 70.84h30.406c-.32-23.614-1.294-47.227-1.94-70.84H94.777z" style="fill:#dad9da;fill-opacity:1;fill-rule:nonzero;stroke:none"/><path d="M124.752 384.57c.65 23.613 1.617 47.226 1.94 70.84h32.779c-.43-23.614-1.51-47.227-2.157-70.84h-32.562z" style="fill:#aeaeb2;fill-opacity:1;fill-rule:nonzero;stroke:none"/><path d="M157.314 384.57c.65 23.613 1.725 47.226 2.157 70.84h15.958c-.54-23.614-1.833-47.227-2.373-70.84h-15.742z" style="fill:#868890;fill-opacity:1;fill-rule:nonzero;stroke:none"/><path d="M173.056 384.57c.54 23.613 1.833 47.226 2.373 70.84H190.2c-.54-23.614-1.941-47.227-2.587-70.84h-14.557z" style="fill:#7a7e87;fill-opacity:1;fill-rule:nonzero;stroke:none"/><path d="M187.613 384.57c.65 23.613 2.048 47.226 2.587 70.84h20.487c-.54-23.614-2.049-47.227-2.696-70.84h-20.378z" style="fill:#767b84;fill-opacity:1;fill-rule:nonzero;stroke:none"/><path d="M207.991 384.57c.65 23.613 2.157 47.226 2.696 70.84h27.063c-.65-23.614-2.264-47.227-2.911-70.84h-26.848z" style="fill:#797e86;fill-opacity:1;fill-rule:nonzero;stroke:none"/><path d="M234.839 384.57c.65 23.613 2.264 47.226 2.911 70.84h64.155c-.86-23.614-2.588-47.227-3.342-70.84h-63.724z" style="fill:#83878e;fill-opacity:1;fill-rule:nonzero;stroke:none"/><path d="M298.563 384.57c.75 23.613 2.48 47.226 3.342 70.84h61.352c-1.186-23.614-3.019-47.227-3.774-70.84h-60.92z" style="fill:#a5a5aa;fill-opacity:1;fill-rule:nonzero;stroke:none"/><path d="M359.483 384.57c.75 23.613 2.588 47.226 3.774 70.84h23.505c-1.186-23.614-3.235-47.227-3.881-70.84h-23.398z" style="fill:#c9c9cc;fill-opacity:1;fill-rule:nonzero;stroke:none"/><path d="M382.881 384.57c.65 23.613 2.695 47.226 3.881 70.84h15.527c-1.294-23.614-3.451-47.227-4.098-70.84h-15.31z" style="fill:#d6d7d9;fill-opacity:1;fill-rule:nonzero;stroke:none"/><path d="M398.191 384.57h2649.65c.97 23.613 1.618 47.226 2.157 70.84H402.289c-1.294-23.614-3.451-47.227-4.098-70.84z" style="fill:#dbdcde;fill-opacity:1;fill-rule:nonzero;stroke:none"/><path d="M3047.841 384.57l19.085-15.203c-5.391 18.545-11.106 37.091-16.928 55.636v30.407c-.54-23.614-1.186-47.227-2.157-70.84z" style="fill:#dbdcde;fill-opacity:1;fill-rule:nonzero;stroke:none"/><path d="M3066.926 369.367c13.801-10.459 38.924-19.085 66.635-19.085-9.92 12.292-20.163 24.476-30.73 36.768-29.112 0-52.833 17.036-52.833 37.953 5.822-18.545 11.537-37.091 16.928-55.636z" style="fill:#dbdcde;fill-opacity:1;fill-rule:nonzero;stroke:none"/><path d="M3133.561 350.282h795.628c10.674 12.292 20.594 24.476 30.514 36.768h-856.872c10.567-12.292 20.81-24.476 30.73-36.768z" style="fill:#dbdcde;fill-opacity:1;fill-rule:nonzero;stroke:none"/><path d="M3929.189 350.282c27.71 0 52.833 8.626 66.635 19.085 6.146 18.545 11.429 37.091 16.82 55.636 0-20.917-23.829-37.953-52.941-37.953-9.92-12.292-19.84-24.476-30.514-36.768z" style="fill:#dbdcde;fill-opacity:1;fill-rule:nonzero;stroke:none"/><path d="M3995.824 369.367l19.084 15.203c-.22 23.613-1.293 47.226-2.264 70.84v-30.407c-5.391-18.545-10.674-37.091-16.82-55.636z" style="fill:#dbdcde;fill-opacity:1;fill-rule:nonzero;stroke:none"/><path d="M4014.908 384.57h2652.346c-.11 23.613-2.804 47.226-4.852 70.84H4012.644c.97-23.614 2.049-47.227 2.264-70.84z" style="fill:#dbdcde;fill-opacity:1;fill-rule:nonzero;stroke:none"/><path d="M6667.254 384.57c-.11 23.613-2.804 47.226-4.852 70.84h15.203c1.941-23.614 4.528-47.227 4.636-70.84h-14.987z" style="fill:#dbdcde;fill-opacity:1;fill-rule:nonzero;stroke:none"/><path d="M6682.241 384.57c-.11 23.613-2.695 47.226-4.636 70.84h21.025c1.941-23.614 4.313-47.227 4.421-70.84h-20.81z" style="fill:#d6d7d9;fill-opacity:1;fill-rule:nonzero;stroke:none"/><path d="M6703.051 384.57c-.11 23.613-2.48 47.226-4.421 70.84h54.667c1.617-23.614 3.881-47.227 3.989-70.84h-54.235z" style="fill:#c9c9cc;fill-opacity:1;fill-rule:nonzero;stroke:none"/><path d="M6757.286 384.57c-.11 23.613-2.372 47.226-3.989 70.84h62.861c1.401-23.614 3.45-47.227 3.558-70.84h-62.43z" style="fill:#a5a5aa;fill-opacity:1;fill-rule:nonzero;stroke:none"/><path d="M6819.716 384.57c-.11 23.613-2.157 47.226-3.558 70.84h31.376c1.294-23.614 3.343-47.227 3.343-70.84h-31.161z" style="fill:#83878e;fill-opacity:1;fill-rule:nonzero;stroke:none"/><path d="M6850.877 384.57c0 23.613-2.049 47.226-3.343 70.84h29.652c1.186-23.614 3.127-47.227 3.127-70.84h-29.436z" style="fill:#797e86;fill-opacity:1;fill-rule:nonzero;stroke:none"/><path d="M6880.313 384.57c0 23.613-1.941 47.226-3.127 70.84h17.575c1.186-23.614 2.911-47.227 3.019-70.84h-17.467z" style="fill:#767b84;fill-opacity:1;fill-rule:nonzero;stroke:none"/><path d="M6897.78 384.57c-.11 23.613-1.833 47.226-3.019 70.84h16.82c1.186-23.614 2.804-47.227 2.912-70.84h-16.713z" style="fill:#7a7e87;fill-opacity:1;fill-rule:nonzero;stroke:none"/><path d="M6914.493 384.57c-.11 23.613-1.726 47.226-2.912 70.84h30.838c1.078-23.614 2.588-47.227 2.695-70.84h-30.621z" style="fill:#868890;fill-opacity:1;fill-rule:nonzero;stroke:none"/><path d="M6945.114 384.57c-.11 23.613-1.617 47.226-2.695 70.84h25.662c.86-23.614 2.264-47.227 2.372-70.84h-25.339z" style="fill:#aeaeb2;fill-opacity:1;fill-rule:nonzero;stroke:none"/><path d="M6970.453 384.57c-.11 23.613-1.51 47.226-2.372 70.84h10.351c.86-23.614 2.156-47.227 2.264-70.84h-10.243z" style="fill:#dad9da;fill-opacity:1;fill-rule:nonzero;stroke:none"/><path d="M6980.696 384.57c-.11 23.613-1.402 47.226-2.264 70.84h8.518c.86-23.614 2.049-47.227 2.049-70.84h-8.303z" style="fill:#e9eaeb;fill-opacity:1;fill-rule:nonzero;stroke:none"/><path d="M6988.999 384.57c0 23.613-1.187 47.226-2.049 70.84h12.939c.86-23.614 1.833-47.227 1.833-70.84h-12.723z" style="fill:#eff1f1;fill-opacity:1;fill-rule:nonzero;stroke:none"/><path d="M7001.722 384.57c0 23.613-.97 47.226-1.833 70.84h10.351c.75-23.614 1.509-47.227 1.617-70.84h-10.135z" style="fill:#ececed;fill-opacity:1;fill-rule:nonzero;stroke:none"/><path d="M7011.857 384.57c-.11 23.613-.86 47.226-1.617 70.84h8.626c.54-23.614 1.293-47.227 1.293-70.84h-8.302z" style="fill:#e2e2e3;fill-opacity:1;fill-rule:nonzero;stroke:none"/><path d="M7020.159 384.57c0 23.613-.75 47.226-1.293 70.84h7.655c.43-23.614 1.078-47.227 1.078-70.84h-7.44z" style="fill:#d2d2d3;fill-opacity:1;fill-rule:nonzero;stroke:none"/><path d="M7027.599 384.57c0 23.613-.65 47.226-1.078 70.84h7.655c.32-23.614.86-47.227.86-70.84h-7.44z" style="fill:#bebbbd;fill-opacity:1;fill-rule:nonzero;stroke:none"/><path d="M7035.039 384.57c0 23.613-.54 47.226-.86 70.84h8.626c.11-23.614.54-47.227.54-70.84h-8.302z" style="fill:#a5a2a4;fill-opacity:1;fill-rule:nonzero;stroke:none"/><path d="M7043.341 384.57c0 23.613-.43 47.226-.54 70.84h10.351c0-23.614.22-47.227.22-70.84h-10.028z" style="fill:#89868a;fill-opacity:1;fill-rule:nonzero;stroke:none"/><path d="M7053.369 384.57c0 23.613-.22 47.226-.22 70.84h12.939v-70.84h-12.723z" style="fill:#6b6b71;fill-opacity:1;fill-rule:nonzero;stroke:none"/></g></g></g></svg>