<svg viewBox="0 0 131 276.5" preserveAspectRatio="none" xmlns="http://www.w3.org/2000/svg"><defs><linearGradient x1="0" y1="0" x2="1" y2="0" gradientUnits="userSpaceOnUse" gradientTransform="matrix(0 -46.024 -46.024 0 6578.58 46.03)" spreadMethod="pad" id="l"><stop style="stop-opacity:1;stop-color:#231f20" offset="0"/><stop style="stop-opacity:1;stop-color:#7b838d" offset=".197"/><stop style="stop-opacity:1;stop-color:#ffffff" offset="1"/></linearGradient><linearGradient x1="0" y1="0" x2="1" y2="0" gradientUnits="userSpaceOnUse" gradientTransform="scale(-1430.53 1430.53) rotate(45 -3.332 -5.992)" spreadMethod="pad" id="n"><stop style="stop-opacity:1;stop-color:#231f20" offset="0"/><stop style="stop-opacity:1;stop-color:#231f20" offset=".799"/><stop style="stop-opacity:1;stop-color:#918f90" offset="1"/></linearGradient><clipPath clipPathUnits="userSpaceOnUse" id="k"><path d="M7027.94 0h-898.71c0 25.32 61.41 46.031 136.46 46.031h625.79c75.05 0 136.46-20.71 136.46-46.031"/></clipPath><clipPath clipPathUnits="userSpaceOnUse" id="m"><path d="M6928.89 2112.9H6687.3l65.36-282.15h268.56V654.379l45.18-185.457V1969.49c0 81.76-59.12 143.41-137.51 143.41z"/></clipPath></defs><g class="phone"><path d="M130.996 256.46c0 11.02-8.95 20.036-19.89 20.036H19.891C8.951 276.496 0 267.481 0 256.46V20.035C0 9.016 8.95 0 19.89 0h91.215c10.94 0 19.891 9.016 19.891 20.035V256.46m-7.85-18.109H8.952V39.067h114.194v199.284" style="fill:rgb(15, 12, 10);fill-opacity:1;fill-rule:evenodd;stroke:none"/><path d="M77.296 24.44c0 .859-.921 1.562-2.047 1.562H56.247c-1.127 0-2.048-.703-2.048-1.562 0-.86.921-1.562 2.048-1.562h19.002c1.126 0 2.047.702 2.047 1.562m-8.944-9.363a2.492 2.492 0 01-2.483 2.5 2.493 2.493 0 01-2.482-2.5 2.49 2.49 0 012.482-2.5 2.488 2.488 0 012.483 2.5" style="fill:#43454a;fill-opacity:1;fill-rule:nonzero;stroke:none"/><path d="M63.386 15.077c0 .26.051.506.125.74a2.19 2.19 0 001.804.955c1.214 0 2.197-.99 2.197-2.213 0-.837-.467-1.556-1.147-1.933a2.49 2.49 0 00-2.979 2.45" style="fill:#0f0c0a;fill-opacity:1;fill-rule:nonzero;stroke:none"/><g clip-path="url(#m)" transform="matrix(.13333 0 0 -.13333 -812.144 282.634)"><path d="M6928.89 2112.9H6687.3l65.36-282.15h268.56V654.379l45.18-185.457V1969.49c0 81.76-59.12 143.41-137.51 143.41" style="fill:url(#n);fill-opacity:1;fill-rule:nonzero;stroke:none"/></g><path d="M123.146 45.612H8.952v-6.545h114.194v6.545" style="fill:#d3d2d2;fill-opacity:1;fill-rule:nonzero;stroke:none"/><path d="M16.566 43.663h-.747v-3.035h.748v3.035m-1.496 0h-.748v-2.541h.748v2.541m-1.496 0h-.748v-1.679h.748v1.679m-1.327 0H11.5v-.84h.748v.84m48.964-2.615h-.01l-.506.276-.076-.302.636-.343h.337v2.935h-.381v-2.567m1.444 2.567v-.244l.31-.303c.743-.713 1.08-1.092 1.083-1.535 0-.298-.142-.573-.577-.573-.264 0-.484.135-.619.248l-.125-.28c.201-.172.488-.299.824-.299.628 0 .892.434.892.854 0 .542-.39.98-1.004 1.576l-.232.217v.008h1.308v.33h-1.86m2.332-.23c0-.167.112-.284.27-.284.155 0 .26.117.263.284 0 .157-.102.28-.269.28-.156 0-.264-.123-.264-.28zm0-1.593c0-.168.112-.286.27-.286.155 0 .26.118.263.286 0 .157-.102.28-.269.28-.156 0-.264-.123-.264-.28m1.251.369c0 .764.233 1.197.592 1.197.402 0 .596-.474.596-1.224 0-.722-.184-1.196-.592-1.196-.346 0-.596.424-.596 1.223zm1.582-.045c0 .998-.368 1.549-1.013 1.549-.57 0-.955-.537-.964-1.508 0-.984.421-1.527 1.013-1.527.614 0 .964.552.964 1.486m.718.045c0 .764.233 1.197.592 1.197.404 0 .596-.474.596-1.224 0-.722-.184-1.196-.591-1.196-.345 0-.597.424-.597 1.223zm1.582-.045c0 .998-.368 1.549-1.013 1.549-.57 0-.955-.537-.963-1.508 0-.984.422-1.527 1.012-1.527.615 0 .964.552.964 1.486m46.678 1.549h-4.287v-3.035h4.287v3.035m2.753 0h-1.11v-3.035h1.11v3.035" style="fill:#231f20;fill-opacity:1;fill-rule:nonzero;stroke:none"/><path d="M120.106 42.723h-1.109v-1.155h1.11v1.155m-1.918.94h-1.109v-3.035h1.11v3.035" style="fill:#231f20;fill-opacity:1;fill-rule:nonzero;stroke:none"/><path d="M75.217 24.175c0 .713-.785 1.297-1.744 1.297H57.301c-.958 0-1.742-.584-1.742-1.297s.784-1.297 1.742-1.297h16.172c.959 0 1.744.584 1.744 1.297m-9.142 231.477H65v-.617h1.075v.617" style="fill:#2c2c2e;fill-opacity:1;fill-rule:nonzero;stroke:none"/><path d="M66.075 255.251H65v-4.304h1.075v4.304" style="fill:#43454a;fill-opacity:1;fill-rule:nonzero;stroke:none"/><path d="M67.839 252.547v.553a4.614 4.614 0 012.278 3.982c0 2.544-2.054 4.613-4.58 4.613-2.524 0-4.578-2.07-4.578-4.613 0-1.698.917-3.18 2.277-3.982v-.553a5.105 5.105 0 00-2.76 4.535c0 2.812 2.27 5.099 5.061 5.099s5.062-2.287 5.062-5.1a5.1 5.1 0 00-2.76-4.534" style="fill:#2c2c2e;fill-opacity:1;fill-rule:nonzero;stroke:none"/><path d="M67.839 252.223v.57a4.884 4.884 0 012.541 4.289c0 2.69-2.172 4.877-4.843 4.877-2.669 0-4.841-2.188-4.841-4.877 0-1.787.974-3.432 2.54-4.29v-.57a5.395 5.395 0 00-3.05 4.86c0 2.973 2.4 5.39 5.351 5.39s5.352-2.417 5.352-5.39a5.392 5.392 0 00-3.05-4.86" style="fill:#43454a;fill-opacity:1;fill-rule:nonzero;stroke:none"/><path d="M95.304 256.152v-2.258l-2.032 1.098z" style="fill:#2c2c2e;fill-opacity:1;fill-rule:nonzero;stroke:none"/><path d="M97.592 254.606h-2.535v.514h2.535c2.905 0 2.905 4.359 0 4.359h-3.276v.513h3.276c3.59 0 3.59-5.386 0-5.386" style="fill:#43454a;fill-opacity:1;fill-rule:nonzero;stroke:none"/><path d="M97.592 254.992h-2.535v.256h2.535c2.735 0 2.735 4.102 0 4.102h-3.276v.257h3.276c3.077 0 3.077-4.615 0-4.615" style="fill:#2c2c2e;fill-opacity:1;fill-rule:nonzero;stroke:none"/><path d="M95.304 255.862v-1.968l-1.837.983zm-57.421-.678h-7.172v-.712h7.172v.712" style="fill:#43454a;fill-opacity:1;fill-rule:nonzero;stroke:none"/><path d="M37.883 255.284h-7.172v-.325h7.172v.325" style="fill:#2c2c2e;fill-opacity:1;fill-rule:nonzero;stroke:none"/><path d="M37.883 257.45h-7.172v-.712h7.172v.712" style="fill:#43454a;fill-opacity:1;fill-rule:nonzero;stroke:none"/><path d="M37.883 257.55h-7.172v-.326h7.172v.326" style="fill:#2c2c2e;fill-opacity:1;fill-rule:nonzero;stroke:none"/><path d="M37.883 259.715h-7.172v-.712h7.172v.712" style="fill:#43454a;fill-opacity:1;fill-rule:nonzero;stroke:none"/><path d="M37.883 259.815h-7.172v-.326h7.172v.326" style="fill:#2c2c2e;fill-opacity:1;fill-rule:nonzero;stroke:none"/></g></svg>