<svg xmlns="http://www.w3.org/2000/svg" style="display:none"><symbol id="HTML" viewBox="0 0 172 172"><g fill="none" stroke-miterlimit="10" font-family="none" font-weight="none" font-size="none" text-anchor="none" style="mix-blend-mode:normal"><path d="M0 172V0h172v172z"/><path d="M146.917 17.917H25.083l10.75 121.833L86 154.083l50.167-14.333 10.75-121.833z" fill="#e65100"/><path d="M86 28.667v114.308l40.133-11.467 8.959-102.841z" fill="#ff6d00"/><path d="M86 89.583V75.25h30.817l-2.509 41.208L86 125.775v-15.05l14.692-5.017 1.075-16.125zm31.892-28.666l1.075-14.334H86v14.334z" fill="#fff"/><path d="M86 110.725v15.05l-28.308-9.317-1.434-19.708h14.334l.716 8.958zM68.442 60.917H86V46.583H53.392l2.508 43H86V75.25H69.517z" fill="#eee"/></g></symbol><symbol id="CSS" viewBox="0 0 48 48"><path fill="#0277BD" d="M41 5H7l3 34 14 4 14-4 3-34z"/><path fill="#039BE5" d="M24 8v31.9l11.2-3.2L37.7 8z"/><path fill="#FFF" d="M33.1 13H24v4h4.9l-.3 4H24v4h4.4l-.3 4.5-4.1 1.4v4.2l7.9-2.6.7-11.5z"/><path fill="#EEE" d="M24 13v4h-8.9l-.3-4H24zm-4.6 8l.2 4H24v-4h-4.6zm.4 6h-4l.3 5.5 7.9 2.6v-4.2l-4.1-1.4-.1-2.5z"/></symbol><symbol id="JS" viewBox="0 0 172 172"><g fill="none" stroke-miterlimit="10" font-family="none" font-weight="none" font-size="none" text-anchor="none" style="mix-blend-mode:normal"><path d="M0 172V0h172v172z"/><path d="M149.076 13.76H22.938c-5.066 0-9.178 4.112-9.178 9.178v126.124c0 5.066 4.112 9.178 9.178 9.178h126.124c5.066 0 9.178-4.112 9.178-9.164V22.938c0-5.066-4.112-9.178-9.164-9.178zM92.88 124.472c0 13.746-8.063 20.008-19.834 20.008-10.642 0-18.315-7.135-21.446-13.76l10.817-6.544c2.083 3.695 5.254 6.544 9.823 6.544 4.367 0 6.88-1.707 6.88-8.345V79.12h13.76zm29.845 20.008c-12.188 0-19.108-6.14-22.965-13.76l10.32-6.88c2.808 4.596 5.872 8.99 12.35 8.99 5.441 0 8.29-2.715 8.29-6.477 0-4.488-2.956-6.087-8.936-8.708l-3.279-1.41c-9.473-4.032-15.775-9.084-15.775-19.78 0-9.837 7.511-17.335 19.229-17.335 8.344 0 14.338 2.902 18.664 10.508L130.411 96.2c-2.258-4.045-4.676-5.63-8.452-5.63-3.843 0-6.276 2.445-6.276 5.63 0 3.937 2.433 5.523 8.063 7.969l3.279 1.41c11.166 4.77 17.455 9.649 17.455 20.614 0 11.811-9.285 18.288-21.755 18.288z" fill="#ffd600"/></g></symbol><symbol id="Pug" viewBox="0 0 64 64"><style>.st0{fill:#C1272D}.st1{fill:#EFCCA3}.st2{fill:#ED1C24}.st3{fill:#CCAC8D}.st4{fill:#FFFFFF}.st5{fill:#FF931E}.st6{fill:#FFB81E}.st7{fill:#56332B}.st8{fill:#442823}.st9{fill:#7F4A41}.st10{fill:#331712}.st11{fill:#FFCC66}.st12{fill:#CCCCCC}.st13{fill:#B3B3B3}.st14{fill:#989898}.st15{fill:#323232}.st16{fill:#1E1E1E}.st17{fill:#4C4C4C}.st18{fill:#E6E6E6}.st19{fill:#606060}</style><path class="st1" fill="#EFCCA3" d="M50.5 31.5c-.1-1.8.4-3.5-.4-4.9-2-3.5-7-5.5-17-5.5V21h-.7.7v.1c-11 0-15.7 2-17.7 5.5-.8 1.4-.8 3-.9 4.9-.1 1.5-.8 3.1-.5 4.7.3 2.2.5 4.4.8 6.4.3 1.7 2.7 3 3 4.6.6 4.3 4.4 6.3 15.4 6.3v.5h-.7.5v-.5c10 0 14.2-2 14.8-6.3.2-1.6 2.2-2.9 2.5-4.6.3-2 .4-4.2.7-6.4.3-1.7-.5-3.3-.5-4.7z"/><path class="st3" fill="#CCAC8D" d="M32.6 33.1c1.8 0 3 1.1 4.2 2.2 1.4 1.2 3.7 2 4.7 3.1 1 1 2.2 2.1 2.7 3.8.5 1.6.6 3.7.6 4.3 0 .5.3.4 1.1 0 2-1 4.2-3.6 4.2-3.6-.3 1.7-2.4 3.2-2.6 4.8-.6 4.3-4.8 6.4-15.1 6.4h.6"/><path class="st3" fill="#CCAC8D" d="M39 29.7c.4 1.3 1.7 5.8-.9 4.3 0 0 1.1.6 1.8 3s2.5 2.7 2.5 2.7 2.8.5 4.9-1.2c1.8-1.5 2.1-4.2 1.3-6.3-.7-2-2.1-2.7-4.1-3.1-1.9-.5-5.9-.9-5.5.6z"/><circle cx="44.1" cy="34.5" r="3.7"/><circle class="st4" fill="#FFF" cx="43.1" cy="32.8" r="1"/><path class="st1" fill="#EFCCA3" d="M38.4 34.3s3.3 2.3 5.2 4.5c1.8 2.3 1.8 2.7 1.8 2.7l-1.3.6s-1.8-3.5-4.1-4.8-2.6-2.4-2.6-2.4l1-.6z"/><path class="st3" fill="#CCAC8D" d="M32.7 33.1c-1.8 0-3.3 1.1-4.5 2.2-1.4 1.2-3.9 2-4.8 3.1-1 1-2.3 2.1-2.8 3.8-.5 1.6-.6 3.7-.6 4.3 0 .5.1.6-1.2 0-2-.9-4.2-3.6-4.2-3.6.3 1.7 2.4 3.2 2.6 4.8.6 4.2 4.8 6.3 15.1 6.3h.7"/><path class="st7" fill="#56332B" d="M42.3 40c-2-2.5-5.3-5-9.8-5-4.5 0-7.7 2.5-9.8 5-2.1 2.6-2 3.7-2 6.1 0 8.9 3.1 6.2 5.2 7.3 2.1 1 4.3.6 6.5.6 2.3 0 4.4.4 6.5-.6 2.1-1.1 5.2 1.6 5.2-7.3.2-2.5.3-3.6-1.8-6.1z"/><path class="st8" fill="#442823" d="M32.3 37.5s-.3 4.1-.9 4.9l1.1-.3-.2-4.6z"/><path class="st8" fill="#442823" d="M32.6 37.5s.3 4.1.9 4.9l-1.1-.3.2-4.6z"/><path class="st7" fill="#56332B" d="M29.1 36.5c-.4-1 1.1-2.6 3.5-2.6s3.9 1.6 3.5 2.6c-.4 1-2 1.3-3.5 1.3-1.6 0-3.1-.3-3.5-1.3z"/><path d="M32.6 37.5c0-.2 1.4-.2 2.2-.7 0 0-1.6.5-1.9.3-.3-.2-.4-.7-.4-.7s-.1.5-.4.7c-.3.2-2.1-.3-2.1-.3s2.4.6 2.3.7v.8c0 1.1 0 3.7.2 3.9.3.4.2-2.8.2-3.9-.1-.3-.1-.6-.1-.8z"/><path class="st9" fill="#7F4A41" d="M32.6 43.2c.7 0 2 .5 3.1 1.3-1.1-1.2-2.4-2.1-3.1-2.1-.8 0-2.4.9-3.5 2.3 1.2-1 2.7-1.5 3.5-1.5z"/><path class="st8" fill="#442823" d="M32.4 50.6c-1.6 0-3.2-.5-4.6-.9-.3-.1-.6.1-.9 0-2.6-.8-4.8-2.3-6.1-4.1v.4c0 8.9 3.1 6.2 5.2 7.3 2.1 1 4.3.6 6.5.6 2.3 0 4.4.4 6.5-.6 2.1-1.1 5.2 1.6 5.2-7.3v-.9c-1.2 2-3.5 3.6-6.2 4.5-.3.1-.8-.1-1.1-.1-1.5.5-2.8 1.1-4.5 1.1z"/><path class="st8" fill="#442823" d="M28.3 45.8s-1.1 3.2-.3 4.6l-1-.4c0-.1.8-3.2 1.3-4.2zm8.4 0s1.1 3.2.3 4.6l1-.4c0-.1-.7-3.2-1.3-4.2z"/><path class="st3" fill="#CCAC8D" d="M25.7 29.7c-.4 1.3-1.7 5.8.9 4.3 0 0-1.1.6-1.8 3s-2.5 2.7-2.5 2.7-2.8.5-4.9-1.2c-1.8-1.5-2.1-4.2-1.3-6.3.7-2 2.1-2.7 4.1-3.1 1.9-.5 5.9-.9 5.5.6z"/><path d="M32.5 42.4c1.1 0 4.7 2.4 4.7 5.5v-.2c0-3.1-2.9-5.6-4.7-5.6-1.9 0-4.7 2.5-4.7 5.6v.2c.1-3.1 3.6-5.5 4.7-5.5z"/><ellipse transform="rotate(-14.465 33.287 35.91)" class="st10" fill="#331712" cx="33.3" cy="35.9" rx=".3" ry=".6"/><ellipse transform="rotate(17.235 31.458 35.906)" class="st10" fill="#331712" cx="31.5" cy="35.9" rx=".3" ry=".6"/><circle cx="20.8" cy="34.5" r="3.7"/><circle class="st4" fill="#FFF" cx="21.8" cy="32.8" r="1"/><path class="st9" fill="#7F4A41" d="M33.6 34.5s-1 .4-1.2.5c-.3 0-1.2-.5-1.2-.5h2.4z"/><path class="st1" fill="#EFCCA3" d="M26.3 34.3s-3.3 2.3-5.2 4.5c-1.8 2.3-1.8 2.7-1.8 2.7l1.3.6s1.8-3.5 4.1-4.8 2.6-2.4 2.6-2.4l-1-.6z"/><path class="st3" fill="#CCAC8D" d="M19 27.6s-1.1 3.1-3.7 4.4c0 0 3.9-.5 3.7-4.4zm26.5 0s1.1 3.1 3.7 4.4c0 0-3.9-.5-3.7-4.4zm-6.9 5.8s-2.6-2.6-5.9-2.7h-.1.4c-4 .1-5.8 2.7-5.8 2.7 2.9-2 4.8-2 5.8-2 0 0 2.6 0 5.6 2zm-3-5.5s-1.4-1.8-3-1.8h-.1.4c-2 0-2.9 1.8-2.9 1.8 1.5-1.4 2.9-1.3 2.9-1.3.1 0 1.3-.1 2.7 1.3zm-14.8 13s-2 1-3.4.4H17c-1-.7-1.7-2.9-1.7-2.9s1.4 3.7 5.5 2.5zm23.2 0s2 1 3.4.4H47c2-.7 2.1-2.9 2.1-2.9S48 42.1 44 40.9z"/><path class="st3" fill="#CCAC8D" d="M23.1 27.4c1.1-.2 2.9-.3 4.3.2 1.8.6.4 3 .7 3.1.4.1.9-1.6 4.3-1.4 3.4.2 3.8 1.7 4.3 1.4.5-.2-.5-4.2 4.7-3.3 0 0-5.3-1.4-5.1 2.4 0 0-3.1-2.4-7.4-.2 0 0 1.1-3.7-5.8-2.2zm18.7 0zm0 0zm-20.1-5.2s-4.6 5.7-5.2 7.9c-.7 2.2-1.2 11.4-1.8 12.7l-2.1-9 3.9-9.4 5.2-2.2zm21.4 0s4.6 5.7 5.2 7.9c.7 2.2 1.2 11.4 1.8 12.7l2.1-9-3.9-9.4-5.2-2.2z"/><path class="st7" fill="#56332B" d="M42.8 22.2s4.9 4.1 6.3 8.8c1.4 4.7.8 10.5 1.9 11.2 1.6 1 3.3-5 3.9-5.6.9-1 4-3.6 4.2-4.1.2-.5-6.2-7.5-9.1-8.9-3.2-1.6-7.4-1.8-7.2-1.4z"/><path class="st8" fill="#442823" d="M47 24.7s5.8 7.4 5.7 16.6l2.3-4.7c0-.1-2-6.1-8-11.9z"/><path class="st7" fill="#56332B" d="M21.7 22.2s-4.9 4.1-6.3 8.8-.8 10.5-1.9 11.2c-1.6 1-3.3-5-3.9-5.6-.9-1-4-3.6-4.2-4.1-.2-.5 6.2-7.5 9.1-8.9 3.2-1.6 7.4-1.8 7.2-1.4z"/><path class="st8" fill="#442823" d="M17.5 24.7s-5.8 7.4-5.7 16.6l-2.3-4.7c0-.1 2-6.1 8-11.9z"/><path class="st3" fill="#CCAC8D" d="M14.3 41.4s.4 2.3 1.1 3c.7.7.2-.6.2-.6s-.7-.4-.6-3.3-.7.9-.7.9zm36 0s-.4 2.3-1.1 3c-.7.7-.2-.6-.2-.6s.7-.4.6-3.3c-.1-2.8.7.9.7.9z"/><circle class="st8" fill="#442823" cx="28.2" cy="39.7" r=".3"/><circle class="st8" fill="#442823" cx="26.2" cy="41.8" r=".3"/><circle class="st8" fill="#442823" cx="25.6" cy="39.7" r=".3"/><circle class="st8" fill="#442823" cx="36.4" cy="39.7" r=".3"/><circle class="st8" fill="#442823" cx="38.3" cy="41.8" r=".3"/><circle class="st8" fill="#442823" cx="38.9" cy="39.7" r=".3"/></symbol><symbol id="SASS" viewBox="0 0 48 48"><path fill="#f06292" d="M39.867 25.956a9.032 9.032 0 00-3.986.928c-.408-.815-.822-1.532-.891-2.065-.081-.622-.175-.994-.077-1.735.098-.741.527-1.791.521-1.87-.006-.079-.096-.456-.983-.463-.887-.006-1.646.171-1.735.405-.089.234-.26.761-.366 1.311-.155.804-1.771 3.673-2.688 5.173-.3-.586-.555-1.102-.608-1.51-.081-.622-.175-.994-.077-1.735.098-.741.527-1.791.521-1.87-.006-.079-.096-.456-.983-.463-.887-.006-1.646.171-1.735.405-.089.234-.185.781-.366 1.311-.182.529-2.329 5.314-2.892 6.555-.287.632-.536 1.14-.712 1.486l-.001-.002-.029.062c-.151.295-.24.458-.24.458l.003.006c-.12.217-.248.418-.311.418-.044 0-.133-.577.019-1.369.32-1.66 1.087-4.248 1.08-4.338-.004-.046.143-.497-.501-.733-.626-.229-.849.153-.906.154-.055.001-.096.135-.096.135s.697-2.911-1.33-2.911c-1.268 0-3.024 1.387-3.889 2.644-.546.298-1.715.936-2.954 1.617l-1.423.783-.095-.104c-2.459-2.623-7.003-4.478-6.811-8.005.07-1.282.516-4.658 8.733-8.752 6.731-3.354 12.12-2.431 13.051-.386 1.33 2.923-2.88 8.354-9.87 9.138-2.663.299-4.066-.734-4.415-1.118-.367-.405-.422-.423-.559-.347-.223.124-.082.481 0 .694.209.543 1.065 1.506 2.525 1.986 1.285.422 4.412.653 8.193-.81 4.236-1.638 7.543-6.196 6.571-10.005-.988-3.874-7.412-5.148-13.492-2.988-3.623 1.286-7.54 3.304-10.357 5.938-3.349 3.132-3.883 5.859-3.663 6.998.782 4.048 6.361 6.684 8.595 8.637l-.308.17c-1.12.554-5.373 2.78-6.437 5.131-1.207 2.667.192 4.581 1.118 4.839 2.869.798 5.813-.638 7.396-2.998 1.582-2.359 1.389-5.432.663-6.834l-.028-.052.876-.517c.57-.335 1.13-.647 1.615-.911-.272.744-.471 1.637-.574 2.926-.122 1.514.499 3.471 1.311 4.241.358.339.788.347 1.06.347.945 0 1.376-.786 1.851-1.716.582-1.14 1.099-2.468 1.099-2.468s-.648 3.586 1.118 3.586c.644 0 1.291-.835 1.58-1.26l.001.007.05-.083c.067-.102.105-.167.105-.167l.003-.019a70.91 70.91 0 001.693-3.162c1.112-2.182 2.178-4.916 2.178-4.916s.099.668.424 1.774c.191.65.597 1.369.918 2.059-.258.358-.416.563-.416.563l.004.011c-.206.274-.437.569-.679.857-.878 1.045-1.923 2.239-2.063 2.583-.165.406-.126.704.193.945.233.175.647.203 1.08.174a4.92 4.92 0 001.617-.368 5.426 5.426 0 001.39-.731c.861-.633 1.38-1.538 1.33-2.738-.028-.661-.238-1.316-.505-1.934l.235-.34c1.357-1.984 2.41-4.164 2.41-4.164s.099.668.424 1.774c.164.559.489 1.17.781 1.768-1.276 1.037-2.067 2.242-2.342 3.032-.508 1.462-.11 2.124.636 2.275.338.068.816-.087 1.175-.239a5.438 5.438 0 001.486-.764c.861-.633 1.689-1.519 1.639-2.718-.023-.546-.171-1.088-.372-1.608 1.082-.451 2.482-.701 4.266-.493 3.827.447 4.577 2.836 4.434 3.836-.144 1-.946 1.55-1.215 1.716-.268.166-.35.224-.328.347.033.179.157.173.386.134.315-.053 2.009-.813 2.082-2.659.091-2.346-2.154-4.92-6.131-4.899zM10.37 35.9c-1.268 1.383-3.038 1.905-3.798 1.465-.82-.475-.495-2.511 1.06-3.979.948-.894 2.172-1.718 2.984-2.225l.786-.472.086-.048-.001-.002.196-.118c.567 2.089.018 3.928-1.313 5.379zm9.235-6.277c-.441 1.076-1.365 3.83-1.928 3.682-.483-.127-.777-2.22-.096-4.28.342-1.037 1.074-2.276 1.504-2.757.692-.774 1.454-1.027 1.639-.713.235.4-.842 3.393-1.119 4.068zm7.629 3.64c-.187.098-.359.159-.438.112-.059-.035.077-.164.077-.164s.954-1.027 1.33-1.494c.219-.272.472-.595.748-.955l.003.107c-.002 1.23-1.19 2.06-1.72 2.394zm5.877-1.34c-.14-.099-.116-.42.343-1.421.18-.393.592-1.054 1.306-1.686.083.26.133.509.132.741-.009 1.548-1.113 2.126-1.781 2.366z"/></symbol><symbol id="JQuery" viewBox="0 0 172 172"><g fill="none" stroke-miterlimit="10" font-family="none" font-weight="none" font-size="none" text-anchor="none" style="mix-blend-mode:normal"><path d="M0 172V0h172v172z"/><path d="M102.743 10.347a3.95 3.95 0 00-1.075.322c-2.956 1.465-6.316 5.819-6.96 6.679-.04.054-.081.107-.108.161-3.32 4.972-5.093 10.79-5.16 16.85-.04 4.543.847 9.044 2.647 13.384 4.193 10.065 12.9 18.396 23.26 22.293.35.121.686.242 1.29.457.054.027.565.188.646.202l.376.134c.537.175 1.088.35 1.626.457 2.728.55 5.388.86 7.888.94.43 0 .86.014 1.29.014 18.852 0 26.162-13.303 28.595-17.737.241-.43.416-.78.577-.995 0-.013 0-.013.014-.027a3.452 3.452 0 00-.914-4.783 3.439 3.439 0 00-4.77.913h-.014c-5.025 7.404-13.625 9.648-25.544 6.692-.887-.215-1.855-.55-2.715-.873a32.877 32.877 0 01-3.305-1.384 35.08 35.08 0 01-5.819-3.642c-10.481-8.13-14.58-25.047-8.452-34.816a3.44 3.44 0 00-3.373-5.241zM72.267 17.2a3.367 3.367 0 00-2.217.78c-5.2 4.232-10.522 11.166-10.75 11.448a.904.904 0 01-.094.148c-9.407 13.693-10.119 33.177-1.801 49.638a61.931 61.931 0 004.354 7.377l.47.672c1.33 1.949 2.822 4.152 4.73 5.872a44.48 44.48 0 002.07 2.177l.335.35.283.282c.712.685 1.437 1.384 2.19 2.056h.013c.054.08.135.134.202.201a60.594 60.594 0 002.849 2.365l.309.229a57.265 57.265 0 002.714 2.042l.282.202c.323.215.645.416.968.645l.322.215.377.242a40.1 40.1 0 002.31 1.424c.619.376 1.277.753 1.707.968.188.107.39.215.86.47l1.048.55c.054.028.296.135.35.162.685.35 1.397.685 2.11 1.008l1.088.484c.712.309 1.438.604 2.325.94l.403.148c.027.027.363.148.39.161a83.98 83.98 0 001.961.672l1.505.497c.753.256 1.626.551 2.58.713 4.69.779 9.245 1.182 13.559 1.182.51 0 1.021-.013 1.518-.013 37.975-.834 47.851-33.097 47.945-33.42a3.453 3.453 0 00-1.827-4.084 3.443 3.443 0 00-4.314 1.182c-9.621 14.056-27.815 19.995-46.346 15.104a39.818 39.818 0 01-2.727-.793 9.204 9.204 0 01-.605-.215 31.277 31.277 0 01-1.868-.645l-.954-.363a42.33 42.33 0 01-1.774-.725l-.443-.202c-.82-.35-1.613-.74-2.325-1.088l-1.962-1.022c-.443-.215-.833-.457-1.438-.82l-.336-.188-.336-.201a22.3 22.3 0 01-1.45-.927l-.323-.202a4.75 4.75 0 01-.323-.228c-.403-.256-.793-.51-1.169-.753a63.114 63.114 0 01-2.607-1.962l-.376-.309C79.16 74.565 72.603 65.105 69.526 54.96c-2.863-9.312-.74-21.5 5.684-32.599a3.423 3.423 0 00-.753-4.34 3.387 3.387 0 00-2.19-.82zM34.413 27.52a3.46 3.46 0 00-2.31.887c-6.572 5.899-11.49 13.545-12.027 14.418C6.02 63.291 8.734 95.097 18.382 114.541c.189.403.39.793.592 1.183l.134.215c.175.39.376.793.444.873.107.256.268.538.336.618.16.336.322.632.618 1.143l1.102 1.894c.16.256.322.524.376.618.215.35.443.713.672 1.075l.537.86c.161.256.323.484.43.618.538.834 1.075 1.667 1.666 2.46.027.04.054.067.081.094l.215.295c.484.699.98 1.37 1.424 1.922l1.962 2.486c.027.027.242.282.256.309l.282.322a55.887 55.887 0 001.854 2.15c.094.108.188.202.282.31.605.658 1.223 1.316 1.868 2.002l.618.59c.51.538 1.022 1.062 1.559 1.56 0 .013.255.255.255.255l.538.497a41.858 41.858 0 001.827 1.666c.027.04.51.457.551.484a53.167 53.167 0 001.908 1.626l3.293 2.607c.55.403 1.115.806 1.76 1.276.215.162.443.323.672.47.094.081.201.162.269.202l2.472 1.653c.9.591 1.8 1.142 2.903 1.8l.59.337a54.71 54.71 0 002.043 1.155c.39.215.78.403 1.116.578.47.255.98.538 1.76.914.067.04.618.309.685.336a63.3 63.3 0 002.567 1.196c0 .013.322.16.322.16.914.39 1.8.767 2.97 1.237.188.08.376.148.416.161.834.323 1.707.645 2.42.9.066.028.43.175.496.202.954.323 1.895.632 3.104 1.008a4.8 4.8 0 00.444.134l.685.215c.833.256 1.666.525 2.567.7 6.396 1.168 12.644 1.773 18.557 1.773h.013c49.276 0 64.97-39.654 65.132-40.057.605-1.6-.054-3.4-1.559-4.233-1.478-.82-3.36-.43-4.407.927-12.645 16.65-36.497 22.83-63.802 16.555a36.54 36.54 0 01-1.988-.55l-1.29-.39a73.279 73.279 0 01-2.594-.86c-.013 0-.403-.148-.403-.148-.752-.256-1.505-.551-2.163-.807l-.753-.295a68.23 68.23 0 01-2.472-1.048l-.47-.202c-.726-.336-1.425-.658-2.124-1.008a14.486 14.486 0 00-.658-.309 51.275 51.275 0 01-1.586-.833l-2.808-1.505a9.624 9.624 0 00-.86-.51c-.847-.525-1.72-1.049-2.58-1.6-.202-.12-.376-.255-.712-.483a54.503 54.503 0 01-2.016-1.357l-.336-.242c-.578-.403-1.142-.833-1.612-1.183-.296-.215-.592-.457-1.075-.82-.43-.335-.86-.658-1.264-.98l-.752-.619c-.632-.51-1.223-1.048-1.841-1.572a1.75 1.75 0 00-.242-.201c-.685-.632-1.384-1.263-2.217-2.056l-2.432-2.419a71.935 71.935 0 01-1.855-1.962 88.205 88.205 0 01-2.002-2.311l-1.451-1.774a9.19 9.19 0 00-.591-.78c-.498-.671-.995-1.33-1.492-2.028-13.384-18.437-16.877-56.922-6.45-71.018a3.44 3.44 0 00-2.755-5.482z" fill="#000"/></g></symbol><symbol id="Bootstrap" viewBox="0 0 48 48"><path fill="#673ab7" d="M42 37a5 5 0 01-5 5H11a5 5 0 01-5-5V11a5 5 0 015-5h26a5 5 0 015 5v26z"/><path fill="#fff" d="M33.03 25.6c-.65-.9-1.59-1.52-2.8-1.85 0 0 1.02-.37 1.94-1.75.55-.88.83-1.94.83-3.18 0-2.15-.78-3.8-2.34-4.93C29.1 12.76 27.34 12 24.35 12H15v24h10.43c2.83-.02 4.96-.63 6.41-1.8 1.44-1.19 2.16-2.95 2.16-5.3 0-1.3-.32-2.4-.97-3.3zM21 16h4.25c1.52 0 2.75 1.23 2.75 2.75s-1.23 2.75-2.75 2.75H21V16zm5 16h-5v-6h5c1.66 0 3 1.34 3 3s-1.34 3-3 3z"/></symbol><symbol id="Gulp" viewBox="0 0 256 566"><path d="M197.28 548.749l5.427-90.43 14.985-25.58s-34.106 13.952-91.205 13.952c-57.1 0-90.689-13.694-90.689-13.694l16.794 27.904 5.941 87.848c0 9.418 31.059 17.052 69.374 17.052 38.313 0 69.373-7.634 69.373-17.052m-17.119-422.295l11.391-45.025 63.081-66.376L238.007.892l-66.784 70.707-13.226 53.793a886.14 886.14 0 00-29.873-.497c-70.336 0-127.355 8.016-127.355 17.902 0 9.887 57.019 17.902 127.355 17.902 70.335 0 127.353-8.015 127.353-17.902 0-7.28-30.924-13.546-75.316-16.343" fill="#D34A47"/><path d="M173.535 151.669s-2.467.553-9.724.584c-7.259.03-12.413-.047-14.466-1.917-.552-.502-.854-1.499-.851-2.174.006-1.285.918-2.042 2.08-2.516l1.099 1.724c-.478.165-.751.36-.752.568-.004.976 7.422 1.644 13.102 1.572 5.681-.07 12.545-.538 12.551-1.5 0-.291-.519-.565-1.422-.781l1.094-1.712c1.472.457 2.757 1.34 2.754 2.868-.014 2.598-3.32 2.993-5.465 3.284" fill="#FFF"/><path d="M254.509 15.184c1.586-1.832-.821-6.518-5.376-10.465C244.576.774 239.596-.94 238.007.892c-1.587 1.832.821 6.518 5.378 10.463 4.555 3.946 9.537 5.662 11.124 3.829m-60.263 312.681c-1.495-14.384 31.462-35.216 23.004-35.883-18.208 1.041-27.27 21.338-36.431 42.596-3.357 7.791-14.844 41.013-22.378 36.923-7.532-4.088 9.765-31.407 14.613-47.631-5.594 4.102-26.109 20.041-31.396 5.114-8.5 7.219-26.663 11.13-24.614-7.833-4.522 8.01-14.671 19.193-26.853 14.546-15.998-6.101 9.27-57.062 15.553-54.491 6.284 2.57-1.268 14.179-3.246 18.687-4.35 9.921-9.375 22.393-6.018 24.946 5.751 4.374 21.401-16.547 21.749-17.007 2.927-3.867 11.266-29.166 17.987-26.261 6.721 2.905-16.764 36.308-7.983 42.937 1.771 1.338 9.017-.825 13.425-5.594 2.852-3.085 1.871-9.918 11.378-32.59 9.507-22.671 17.98-50.905 24.5-48.754 6.52 2.15 1.146 16.641-1.193 22.043-10.976 25.354-29.956 67.241-21.005 64.07 8.951-3.17 13.612-3.356 22.377-13.613 8.765-10.257 8.361-27.152 14.203-26.793 5.844.36 4.863 5.777 3.446 9.902 5.75-6.58 27.256-20.438 32.448-6.713 6.15 16.249-30.769 39.72-21.564 38.523 8.975-1.167 23.515-10.376 29.723-18.749l17.088-153.626s-17.195 14.23-126.589 14.23c-109.395 0-124.811-13.934-124.811-13.934l14.548 140.224c7.722-21.947 26.059-66.339 54.963-64.849 13.148.678 30.7 25.995 15.665 26.853-6.364.362-7.01-12.637-14.546-14.546-5.438-1.378-13.009 3.043-17.902 7.833-9.758 9.55-30.745 47.229-27.972 66.014 3.533 23.949 33.048-8.322 38.042-17.903 3.517-6.749 5.893-26.745 13.585-24.647 7.693 2.098-.671 22.734-6.247 40.979-6.264 20.487-9.557 42.098-17.408 39.612-7.852-2.484 4.938-28.932 4.475-33.566-7.38 6.809-20.976 24.047-38.37 15.515l9.035 87.078s24.013 18.973 96.35 18.973c72.337 0 97.239-18.677 97.239-18.677l11.219-100.857c-9.179 8.938-38.229 24.81-40.089 6.919" fill="#D34A47"/></symbol><symbol id="Webpack" viewBox="0 0 128 128"><path fill="#8ed6fb" d="M117.29 98.1L66.24 127v-22.51L98 87l19.29 11.1zm3.5-3.16V34.55l-18.68 10.8v38.81l18.67 10.77zM10.71 98.1l51 28.88v-22.49L29.94 87zm-3.5-3.16V34.55l18.68 10.8v38.81zm2.19-64.3L61.76 1v21.76L28.21 41.21l-.27.15zm109.18 0L66.24 1v21.76L99.79 41.2l.27.15 18.54-10.71z"/><path fill="#1c78c0" d="M61.76 99.37L30.37 82.1V47.92L61.76 66zm4.48 0l31.39-17.25v-34.2L66.24 66zM32.5 44L64 26.66 95.5 44 64 62.16 32.5 44z"/></symbol><symbol id="Vue" viewBox="0 0 261.76 226.69"><path d="M0 0l-22.669-39.264L-45.338 0h-75.491l98.16-170.02L75.491 0z" fill="#41b883" transform="matrix(1.3333 0 0 -1.3333 161.096 .001)"/><path d="M0 0l-22.669-39.264L-45.338 0h-36.227l58.896-102.01L36.227 0z" fill="#34495e" transform="matrix(1.3333 0 0 -1.3333 161.096 .001)"/></symbol></svg>