<svg viewBox="0 0 131 276.5" preserveAspectRatio="none" xmlns="http://www.w3.org/2000/svg">
  <defs>
    <clipPath clipPathUnits="userSpaceOnUse" id="k">
      <path d="M7027.94 0h-898.71c0 25.32 61.41 46.031 136.46 46.031h625.79c75.05 0 136.46-20.71 136.46-46.031"></path>
    </clipPath>
    <linearGradient x1="0" y1="0" x2="1" y2="0" gradientUnits="userSpaceOnUse" gradientTransform="matrix(0 -46.024 -46.024 0 6578.58 46.03)" spreadMethod="pad" id="l">
      <stop style="stop-opacity:1;stop-color:#231f20" offset="0"></stop>
      <stop style="stop-opacity:1;stop-color:#7b838d" offset="0.197"></stop>
      <stop style="stop-opacity:1;stop-color:#ffffff" offset="1"></stop>
    </linearGradient>
    <clipPath clipPathUnits="userSpaceOnUse" id="m">
      <path d="M6928.89 2112.9H6687.3l65.36-282.15h268.56V654.379l45.18-185.457V1969.49c0 81.76-59.12 143.41-137.51 143.41z"></path>
    </clipPath>
    <linearGradient x1="0" y1="0" x2="1" y2="0" gradientUnits="userSpaceOnUse" gradientTransform="scale(-1430.53 1430.53) rotate(45 -3.332 -5.992)" spreadMethod="pad" id="n">
      <stop style="stop-opacity:1;stop-color:#231f20" offset="0"></stop>
      <stop style="stop-opacity:1;stop-color:#231f20" offset="0.799"></stop>
      <stop style="stop-opacity:1;stop-color:#918f90" offset="1"></stop>
    </linearGradient>
  </defs>
  <g class="phone" transform="matrix(1, 0, 0, 1, -468.088013, -391.126007)">
    <path d="M 599.084 647.586 C 599.084 658.606 590.134 667.622 579.194 667.622 L 487.979 667.622 C 477.039 667.622 468.088 658.607 468.088 647.586 L 468.088 411.161 C 468.088 400.142 477.038 391.126 487.978 391.126 L 579.193 391.126 C 590.133 391.126 599.084 400.142 599.084 411.161 L 599.084 647.586 M 591.234 629.477 L 477.04 629.477 L 477.04 430.193 L 591.234 430.193 L 591.234 629.477" style="fill: rgb(15, 12, 10); fill-opacity: 1; fill-rule: evenodd; stroke: none;"></path>
    <path d="M 545.384 415.566 C 545.384 416.425 544.463 417.128 543.337 417.128 L 524.335 417.128 C 523.208 417.128 522.287 416.425 522.287 415.566 C 522.287 414.706 523.208 414.004 524.335 414.004 L 543.337 414.004 C 544.463 414.004 545.384 414.706 545.384 415.566 M 536.44 406.203 C 536.445 407.578 535.333 408.698 533.957 408.703 C 532.582 408.697 531.471 407.578 531.475 406.203 C 531.47 404.827 532.582 403.707 533.957 403.703 C 535.334 403.706 536.446 404.826 536.44 406.203" style="fill:#43454a;fill-opacity:1;fill-rule:nonzero;stroke:none"></path>
    <path d="M 531.474 406.203 C 531.474 406.463 531.525 406.709 531.599 406.943 C 532.006 407.539 532.681 407.897 533.403 407.898 C 534.617 407.898 535.6 406.908 535.6 405.685 C 535.6 404.848 535.133 404.129 534.453 403.752 C 532.909 403.443 531.47 404.627 531.474 406.202" style="fill:#0f0c0a;fill-opacity:1;fill-rule:nonzero;stroke:none"></path>
    <g clip-path="url(#m)" transform="matrix(0.13333, 0, 0, -0.13333, -344.055511, 673.759583)">
      <path d="M6928.89 2112.9H6687.3l65.36-282.15h268.56V654.379l45.18-185.457V1969.49c0 81.76-59.12 143.41-137.51 143.41" style="fill:url(#n);fill-opacity:1;fill-rule:nonzero;stroke:none"></path>
    </g>
    <path d="M 591.234 436.738 L 477.04 436.738 L 477.04 430.193 L 591.234 430.193 L 591.234 436.738" style="fill:#d3d2d2;fill-opacity:1;fill-rule:nonzero;stroke:none"></path>
    <path d="M 484.654 434.789 L 483.907 434.789 L 483.907 431.754 L 484.655 431.754 L 484.655 434.789 M 483.159 434.789 L 482.411 434.789 L 482.411 432.248 L 483.159 432.248 L 483.159 434.789 M 481.663 434.789 L 480.915 434.789 L 480.915 433.11 L 481.663 433.11 L 481.663 434.789 M 480.336 434.789 L 479.588 434.789 L 479.588 433.949 L 480.336 433.949 L 480.336 434.789 M 529.3 432.174 L 529.29 432.174 L 528.784 432.45 L 528.708 432.148 L 529.344 431.805 L 529.681 431.805 L 529.681 434.74 L 529.3 434.74 L 529.3 432.173 M 530.744 434.74 L 530.744 434.496 L 531.054 434.193 C 531.797 433.48 532.134 433.101 532.137 432.658 C 532.137 432.36 531.995 432.085 531.56 432.085 C 531.296 432.085 531.076 432.22 530.941 432.333 L 530.816 432.053 C 531.017 431.881 531.304 431.754 531.64 431.754 C 532.268 431.754 532.532 432.188 532.532 432.608 C 532.532 433.15 532.142 433.588 531.528 434.184 L 531.296 434.401 L 531.296 434.409 L 532.604 434.409 L 532.604 434.739 L 530.744 434.739 M 533.076 434.509 C 533.076 434.342 533.188 434.225 533.346 434.225 C 533.501 434.225 533.606 434.342 533.609 434.509 C 533.609 434.666 533.507 434.789 533.34 434.789 C 533.184 434.789 533.076 434.666 533.076 434.509 Z M 533.076 432.916 C 533.076 432.748 533.188 432.63 533.346 432.63 C 533.501 432.63 533.606 432.748 533.609 432.916 C 533.609 433.073 533.507 433.196 533.34 433.196 C 533.184 433.196 533.076 433.073 533.076 432.916 M 534.327 433.285 C 534.327 434.049 534.56 434.482 534.919 434.482 C 535.321 434.482 535.515 434.008 535.515 433.258 C 535.515 432.536 535.331 432.062 534.923 432.062 C 534.577 432.062 534.327 432.486 534.327 433.285 Z M 535.909 433.24 C 535.909 434.238 535.541 434.789 534.896 434.789 C 534.326 434.789 533.941 434.252 533.932 433.281 C 533.932 432.297 534.353 431.754 534.945 431.754 C 535.559 431.754 535.909 432.306 535.909 433.24 M 536.627 433.285 C 536.627 434.049 536.86 434.482 537.219 434.482 C 537.623 434.482 537.815 434.008 537.815 433.258 C 537.815 432.536 537.631 432.062 537.224 432.062 C 536.879 432.062 536.627 432.486 536.627 433.285 Z M 538.209 433.24 C 538.209 434.238 537.841 434.789 537.196 434.789 C 536.626 434.789 536.241 434.252 536.233 433.281 C 536.233 432.297 536.655 431.754 537.245 431.754 C 537.86 431.754 538.209 432.306 538.209 433.24 M 584.887 434.789 L 580.6 434.789 L 580.6 431.754 L 584.887 431.754 L 584.887 434.789 M 587.64 434.789 L 586.53 434.789 L 586.53 431.754 L 587.64 431.754 L 587.64 434.789" style="fill:#231f20;fill-opacity:1;fill-rule:nonzero;stroke:none"></path>
    <path d="M 588.194 433.849 L 587.085 433.849 L 587.085 432.694 L 588.195 432.694 L 588.195 433.849 M 586.277 434.789 L 585.168 434.789 L 585.168 431.754 L 586.278 431.754 L 586.278 434.789" style="fill:#231f20;fill-opacity:1;fill-rule:nonzero;stroke:none"></path>
    <path d="M 543.305 415.301 C 543.305 416.014 542.52 416.598 541.561 416.598 L 525.389 416.598 C 524.431 416.598 523.647 416.014 523.647 415.301 C 523.647 414.588 524.431 414.004 525.389 414.004 L 541.561 414.004 C 542.52 414.004 543.305 414.588 543.305 415.301 M 534.163 646.778 L 533.088 646.778 L 533.088 646.161 L 534.163 646.161 L 534.163 646.778" style="fill:#2c2c2e;fill-opacity:1;fill-rule:nonzero;stroke:none"></path>
    <path d="M 534.163 646.377 L 533.088 646.377 L 533.088 642.073 L 534.163 642.073 L 534.163 646.377" style="fill:#43454a;fill-opacity:1;fill-rule:nonzero;stroke:none"></path>
    <path d="M 535.927 643.673 L 535.927 644.226 C 537.339 645.055 538.206 646.57 538.205 648.208 C 538.205 650.752 536.151 652.821 533.625 652.821 C 531.101 652.821 529.047 650.751 529.047 648.208 C 529.047 646.51 529.964 645.028 531.324 644.226 L 531.324 643.673 C 529.629 644.549 528.564 646.299 528.564 648.208 C 528.564 651.02 530.834 653.307 533.625 653.307 C 536.416 653.307 538.687 651.02 538.687 648.207 C 538.688 646.298 537.623 644.549 535.927 643.673" style="fill:#2c2c2e;fill-opacity:1;fill-rule:nonzero;stroke:none"></path>
    <path d="M 535.927 643.349 L 535.927 643.919 C 537.495 644.776 538.469 646.421 538.468 648.208 C 538.468 650.898 536.296 653.085 533.625 653.085 C 530.956 653.085 528.784 650.897 528.784 648.208 C 528.784 646.421 529.758 644.776 531.324 643.918 L 531.324 643.348 C 529.459 644.248 528.274 646.136 528.274 648.208 C 528.274 651.181 530.674 653.598 533.625 653.598 C 536.576 653.598 538.977 651.181 538.977 648.208 C 538.978 646.136 537.793 644.248 535.927 643.348" style="fill:#43454a;fill-opacity:1;fill-rule:nonzero;stroke:none"></path>
    <path d="M 563.392 647.278 L 563.392 645.02 L 561.36 646.118 Z" style="fill:#2c2c2e;fill-opacity:1;fill-rule:nonzero;stroke:none"></path>
    <path d="M 565.68 645.732 L 563.145 645.732 L 563.145 646.246 L 565.68 646.246 C 568.585 646.246 568.585 650.605 565.68 650.605 L 562.404 650.605 L 562.404 651.118 L 565.68 651.118 C 569.27 651.118 569.27 645.732 565.68 645.732" style="fill:#43454a;fill-opacity:1;fill-rule:nonzero;stroke:none"></path>
    <path d="M 565.68 646.118 L 563.145 646.118 L 563.145 646.374 L 565.68 646.374 C 568.415 646.374 568.415 650.476 565.68 650.476 L 562.404 650.476 L 562.404 650.733 L 565.68 650.733 C 568.757 650.733 568.757 646.118 565.68 646.118" style="fill:#2c2c2e;fill-opacity:1;fill-rule:nonzero;stroke:none"></path>
    <path d="M 563.392 646.988 L 563.392 645.02 L 561.555 646.003 Z M 505.971 646.31 L 498.799 646.31 L 498.799 645.598 L 505.971 645.598 L 505.971 646.31" style="fill:#43454a;fill-opacity:1;fill-rule:nonzero;stroke:none"></path>
    <path d="M 505.971 646.41 L 498.799 646.41 L 498.799 646.085 L 505.971 646.085 L 505.971 646.41" style="fill:#2c2c2e;fill-opacity:1;fill-rule:nonzero;stroke:none"></path>
    <path d="M 505.971 648.576 L 498.799 648.576 L 498.799 647.864 L 505.971 647.864 L 505.971 648.576" style="fill:#43454a;fill-opacity:1;fill-rule:nonzero;stroke:none"></path>
    <path d="M 505.971 648.676 L 498.799 648.676 L 498.799 648.35 L 505.971 648.35 L 505.971 648.676" style="fill:#2c2c2e;fill-opacity:1;fill-rule:nonzero;stroke:none"></path>
    <path d="M 505.971 650.841 L 498.799 650.841 L 498.799 650.129 L 505.971 650.129 L 505.971 650.841" style="fill:#43454a;fill-opacity:1;fill-rule:nonzero;stroke:none"></path>
    <path d="M 505.971 650.941 L 498.799 650.941 L 498.799 650.615 L 505.971 650.615 L 505.971 650.941" style="fill:#2c2c2e;fill-opacity:1;fill-rule:nonzero;stroke:none"></path>
  </g>
</svg>