<svg xmlns="http://www.w3.org/2000/svg" style="display: none;"><symbol id="linkedin" viewBox="0 0 382 382"><title>linkedin</title><path style="fill:#0077B7;" d="M347.445,0H34.555C15.471,0,0,15.471,0,34.555v312.889C0,366.529,15.471,382,34.555,382h312.889 C366.529,382,382,366.529,382,347.444V34.555C382,15.471,366.529,0,347.445,0z M118.207,329.844c0,5.554-4.502,10.056-10.056,10.056 H65.345c-5.554,0-10.056-4.502-10.056-10.056V150.403c0-5.554,4.502-10.056,10.056-10.056h42.806 c5.554,0,10.056,4.502,10.056,10.056V329.844z M86.748,123.432c-22.459,0-40.666-18.207-40.666-40.666S64.289,42.1,86.748,42.1 s40.666,18.207,40.666,40.666S109.208,123.432,86.748,123.432z M341.91,330.654c0,5.106-4.14,9.246-9.246,9.246H286.73 c-5.106,0-9.246-4.14-9.246-9.246v-84.168c0-12.556,3.683-55.021-32.813-55.021c-28.309,0-34.051,29.066-35.204,42.11v97.079 c0,5.106-4.139,9.246-9.246,9.246h-44.426c-5.106,0-9.246-4.14-9.246-9.246V149.593c0-5.106,4.14-9.246,9.246-9.246h44.426 c5.106,0,9.246,4.14,9.246,9.246v15.655c10.497-15.753,26.097-27.912,59.312-27.912c73.552,0,73.131,68.716,73.131,106.472 L341.91,330.654L341.91,330.654z"/></symbol><symbol id="github" viewBox="0 0 24 24"><title>github</title><path d="m12 .5c-6.63 0-12 5.28-12 11.792 0 5.211 3.438 9.63 8.205 11.188.6.111.82-.254.82-.567 0-.28-.01-1.022-.015-2.005-3.338.711-4.042-1.582-4.042-1.582-.546-1.361-1.335-1.725-1.335-1.725-1.087-.731.084-.716.084-.716 1.205.082 1.838 1.215 1.838 1.215 1.07 1.803 2.809 1.282 3.495.981.108-.763.417-1.282.76-1.577-2.665-.295-5.466-1.309-5.466-5.827 0-1.287.465-2.339 1.235-3.164-.135-.298-.54-1.497.105-3.121 0 0 1.005-.316 3.3 1.209.96-.262 1.98-.392 3-.398 1.02.006 2.04.136 3 .398 2.28-1.525 3.285-1.209 3.285-1.209.645 1.624.24 2.823.12 3.121.765.825 1.23 1.877 1.23 3.164 0 4.53-2.805 5.527-5.475 5.817.42.354.81 1.077.81 2.182 0 1.578-.015 2.846-.015 3.229 0 .309.21.678.825.56 4.801-1.548 8.236-5.97 8.236-11.173 0-6.512-5.373-11.792-12-11.792z"/></symbol><symbol id="vk" viewBox="0 0 94 94"><title>vk-social-logotype</title><path d="M89,0H5C2.238,0,0,2.239,0,5v84c0,2.761,2.238,5,5,5h84c2.762,0,5-2.239,5-5V5C94,2.239,91.762,0,89,0z M74.869,52.943 c2.562,2.5,5.271,4.854,7.572,7.617c1.018,1.22,1.978,2.48,2.709,3.899c1.041,2.024,0.101,4.247-1.713,4.366l-11.256-0.003 c-2.906,0.239-5.22-0.931-7.172-2.918c-1.555-1.585-3.001-3.277-4.5-4.914c-0.611-0.673-1.259-1.306-2.025-1.806 c-1.534-0.996-2.867-0.692-3.748,0.909c-0.896,1.63-1.103,3.438-1.185,5.255c-0.125,2.655-0.925,3.348-3.588,3.471 c-5.69,0.268-11.091-0.596-16.108-3.463c-4.429-2.53-7.854-6.104-10.838-10.146c-5.816-7.883-10.27-16.536-14.27-25.437 c-0.901-2.005-0.242-3.078,1.967-3.119c3.676-0.073,7.351-0.063,11.022-0.004c1.496,0.023,2.485,0.879,3.058,2.289 c1.985,4.885,4.421,9.533,7.471,13.843c0.813,1.147,1.643,2.292,2.823,3.103c1.304,0.896,2.298,0.601,2.913-0.854 c0.393-0.928,0.563-1.914,0.647-2.906c0.292-3.396,0.327-6.792-0.177-10.175c-0.315-2.116-1.507-3.483-3.617-3.883 c-1.074-0.204-0.917-0.602-0.395-1.215c0.906-1.062,1.76-1.718,3.456-1.718l12.721-0.002c2.006,0.392,2.452,1.292,2.725,3.311 l0.012,14.133c-0.021,0.782,0.391,3.098,1.795,3.61c1.123,0.371,1.868-0.53,2.54-1.244c3.048-3.235,5.22-7.056,7.167-11.009 c0.857-1.743,1.6-3.549,2.32-5.356c0.533-1.337,1.367-1.995,2.875-1.971l12.246,0.013c0.36,0,0.729,0.004,1.086,0.063 c2.062,0.355,2.627,1.243,1.99,3.257c-1.004,3.163-2.959,5.799-4.871,8.441c-2.043,2.825-4.224,5.557-6.252,8.396 C72.411,49.38,72.561,50.688,74.869,52.943z" fill="#0077b7" data-original="#000000" style="" class=""/></symbol></svg>