<svg xmlns="http://www.w3.org/2000/svg" style="display:none;">
<symbol id="HTML" viewBox="0 0 172 172">
<g fill="none" fill-rule="nonzero" stroke="none" stroke-width="1" stroke-linecap="butt" stroke-linejoin="miter" stroke-miterlimit="10" stroke-dasharray="" stroke-dashoffset="0" font-family="none" font-weight="none" font-size="none" text-anchor="none" style="mix-blend-mode: normal"><path d="M0,172v-172h172v172z" fill="none"></path><g><path d="M146.91667,17.91667h-121.83333l10.75,121.83333l50.16667,14.33333l50.16667,-14.33333l10.75,-121.83333z" fill="#e65100"></path><path d="M86,28.66667v114.30833l40.13333,-11.46667l8.95833,-102.84167z" fill="#ff6d00"></path><path d="M86,89.58333v-14.33333h30.81667l-2.50833,41.20833l-28.30833,9.31667v-15.05l14.69167,-5.01667l1.075,-16.125zM117.89167,60.91667l1.075,-14.33333h-32.96667v14.33333z" fill="#ffffff"></path><path d="M86,110.725v15.05l-28.30833,-9.31667l-1.43333,-19.70833h14.33333l0.71667,8.95833zM68.44167,60.91667h17.55833v-14.33333h-32.60833l2.50833,43h30.1v-14.33333h-16.48333z" fill="#eeeeee"></path></g></g>
</symbol>
<symbol id="CSS" viewBox="0 0 48 48">
<path fill="#0277BD" d="M41,5H7l3,34l14,4l14-4L41,5L41,5z"></path><path fill="#039BE5" d="M24 8L24 39.9 35.2 36.7 37.7 8z"></path><path fill="#FFF" d="M33.1 13L24 13 24 17 28.9 17 28.6 21 24 21 24 25 28.4 25 28.1 29.5 24 30.9 24 35.1 31.9 32.5 32.6 21 32.6 21z"></path><path fill="#EEE" d="M24,13v4h-8.9l-0.3-4H24z M19.4,21l0.2,4H24v-4H19.4z M19.8,27h-4l0.3,5.5l7.9,2.6v-4.2l-4.1-1.4L19.8,27z"></path>
</symbol>
<symbol id="JS" viewBox="0 0 172 172">
<g fill="none" fill-rule="nonzero" stroke="none" stroke-width="1" stroke-linecap="butt" stroke-linejoin="miter" stroke-miterlimit="10" stroke-dasharray="" stroke-dashoffset="0" font-family="none" font-weight="none" font-size="none" text-anchor="none" style="mix-blend-mode: normal"><path d="M0,172v-172h172v172z" fill="none"></path><g fill="#ffd600"><path d="M149.07563,13.76h-126.13781c-5.06594,0 -9.17781,4.11188 -9.17781,9.17781v126.12437c0,5.06594 4.11188,9.17781 9.17781,9.17781h126.12437c5.06594,0 9.17781,-4.11187 9.17781,-9.16437v-126.13781c0,-5.06594 -4.11187,-9.17781 -9.16437,-9.17781zM92.88,124.47156c0,13.74656 -8.0625,20.00844 -19.83375,20.00844c-10.6425,0 -18.31531,-7.13531 -21.44625,-13.76l10.81719,-6.54406c2.08281,3.69531 5.25406,6.54406 9.82281,6.54406c4.36719,0 6.88,-1.70656 6.88,-8.34469v-43.25531h13.76zM122.72469,144.48c-12.18781,0 -19.10812,-6.14094 -22.96469,-13.76l10.32,-6.88c2.80844,4.59563 5.87219,8.98969 12.34906,8.98969c5.44219,0 8.29094,-2.71437 8.29094,-6.47687c0,-4.48813 -2.95625,-6.08719 -8.93594,-8.7075l-3.27875,-1.41094c-9.47344,-4.03125 -15.77563,-9.08375 -15.77563,-19.78c0,-9.83625 7.51156,-17.33438 19.22906,-17.33438c8.34469,0 14.33781,2.9025 18.66469,10.50813l-10.2125,6.57094c-2.2575,-4.04469 -4.67625,-5.63031 -8.45219,-5.63031c-3.84312,0 -6.27531,2.44563 -6.27531,5.63031c0,3.93719 2.43219,5.52281 8.0625,7.96844l3.27875,1.41094c11.16656,4.77031 17.45531,9.64813 17.45531,20.61313c0,11.81156 -9.28531,18.28844 -21.75531,18.28844z"></path></g></g>
</symbol>
<symbol id="Pug" viewBox="0 0 64 64">
<style type="text/css">
	.st0{fill:#C1272D;}
	.st1{fill:#EFCCA3;}
	.st2{fill:#ED1C24;}
	.st3{fill:#CCAC8D;}
	.st4{fill:#FFFFFF;}
	.st5{fill:#FF931E;}
	.st6{fill:#FFB81E;}
	.st7{fill:#56332B;}
	.st8{fill:#442823;}
	.st9{fill:#7F4A41;}
	.st10{fill:#331712;}
	.st11{fill:#FFCC66;}
	.st12{fill:#CCCCCC;}
	.st13{fill:#B3B3B3;}
	.st14{fill:#989898;}
	.st15{fill:#323232;}
	.st16{fill:#1E1E1E;}
	.st17{fill:#4C4C4C;}
	.st18{fill:#E6E6E6;}
	.st19{fill:#606060;}
</style>
<g>
	<path class="st1" fill="#EFCCA3" d="M50.5,31.5c-0.1-1.8,0.4-3.5-0.4-4.9c-2-3.5-7-5.5-17-5.5V21c0,0-0.7,0-0.7,0s0.7,0,0.7,0v0.1
		c-11,0-15.7,2-17.7,5.5c-0.8,1.4-0.8,3-0.9,4.9c-0.1,1.5-0.8,3.1-0.5,4.7c0.3,2.2,0.5,4.4,0.8,6.4c0.3,1.7,2.7,3,3,4.6
		c0.6,4.3,4.4,6.3,15.4,6.3V54h-0.7h0.1H33v-0.5c10,0,14.2-2,14.8-6.3c0.2-1.6,2.2-2.9,2.5-4.6c0.3-2,0.4-4.2,0.7-6.4
		C51.3,34.5,50.5,32.9,50.5,31.5z"/>
	<path class="st3" fill="#CCAC8D" d="M32.6,33.1c1.8,0,3,1.1,4.2,2.2c1.4,1.2,3.7,2,4.7,3.1c1,1,2.2,2.1,2.7,3.8c0.5,1.6,0.6,3.7,0.6,4.3
		c0,0.5,0.3,0.4,1.1,0c2-1,4.2-3.6,4.2-3.6c-0.3,1.7-2.4,3.2-2.6,4.8c-0.6,4.3-4.8,6.4-15.1,6.4h0h0H33"/>
	<path class="st3" fill="#CCAC8D" d="M39,29.7c0.4,1.3,1.7,5.8-0.9,4.3c0,0,1.1,0.6,1.8,3c0.7,2.4,2.5,2.7,2.5,2.7s2.8,0.5,4.9-1.2
		c1.8-1.5,2.1-4.2,1.3-6.3c-0.7-2-2.1-2.7-4.1-3.1C42.6,28.6,38.6,28.2,39,29.7z"/>
	<g>
		<circle cx="44.1" cy="34.5" r="3.7"/>
		<circle class="st4" fill="#FFFFFF" cx="43.1" cy="32.8" r="1"/>
	</g>
	<path class="st1" fill="#EFCCA3" d="M38.4,34.3c0,0,3.3,2.3,5.2,4.5c1.8,2.3,1.8,2.7,1.8,2.7l-1.3,0.6c0,0-1.8-3.5-4.1-4.8s-2.6-2.4-2.6-2.4
		L38.4,34.3z"/>
	<path class="st3" fill="#CCAC8D" d="M32.7,33.1c-1.8,0-3.3,1.1-4.5,2.2c-1.4,1.2-3.9,2-4.8,3.1c-1,1-2.3,2.1-2.8,3.8c-0.5,1.6-0.6,3.7-0.6,4.3
		c0,0.5,0.1,0.6-1.2,0c-2-0.9-4.2-3.6-4.2-3.6c0.3,1.7,2.4,3.2,2.6,4.8C17.8,51.9,22,54,32.3,54h0h0H33"/>
	<path class="st7" fill="#56332B" d="M42.3,40c-2-2.5-5.3-5-9.8-5h0h0c-4.5,0-7.7,2.5-9.8,5c-2.1,2.6-2,3.7-2,6.1c0,8.9,3.1,6.2,5.2,7.3
		c2.1,1,4.3,0.6,6.5,0.6h0h0c2.3,0,4.4,0.4,6.5-0.6c2.1-1.1,5.2,1.6,5.2-7.3C44.3,43.6,44.4,42.5,42.3,40z"/>
	<path class="st8" fill="#442823" d="M32.3,37.5c0,0-0.3,4.1-0.9,4.9l1.1-0.3L32.3,37.5z"/>
	<path class="st8" fill="#442823" d="M32.6,37.5c0,0,0.3,4.1,0.9,4.9l-1.1-0.3L32.6,37.5z"/>
	<path class="st7" fill="#56332B" d="M29.1,36.5c-0.4-1,1.1-2.6,3.5-2.6c2.4,0,3.9,1.6,3.5,2.6c-0.4,1-2,1.3-3.5,1.3C31,37.8,29.5,37.5,29.1,36.5z"
		/>
	<path d="M32.6,37.5c0-0.2,1.4-0.2,2.2-0.7c0,0-1.6,0.5-1.9,0.3c-0.3-0.2-0.4-0.7-0.4-0.7c0,0-0.1,0.5-0.4,0.7
		c-0.3,0.2-2.1-0.3-2.1-0.3s2.4,0.6,2.3,0.7c0,0.1,0,0.5,0,0.8c0,1.1,0,3.7,0.2,3.9c0.3,0.4,0.2-2.8,0.2-3.9
		C32.6,38,32.6,37.7,32.6,37.5z"/>
	<path class="st9" fill="#7F4A41" d="M32.6,43.2c0.7,0,2,0.5,3.1,1.3c-1.1-1.2-2.4-2.1-3.1-2.1c-0.8,0-2.4,0.9-3.5,2.3
		C30.3,43.7,31.8,43.2,32.6,43.2z"/>
	<path class="st8" fill="#442823" d="M32.4,50.6c-1.6,0-3.2-0.5-4.6-0.9c-0.3-0.1-0.6,0.1-0.9,0c-2.6-0.8-4.8-2.3-6.1-4.1c0,0.1,0,0.3,0,0.4
		c0,8.9,3.1,6.2,5.2,7.3c2.1,1,4.3,0.6,6.5,0.6h0h0c2.3,0,4.4,0.4,6.5-0.6c2.1-1.1,5.2,1.6,5.2-7.3c0-0.3,0-0.6,0-0.9
		c-1.2,2-3.5,3.6-6.2,4.5c-0.3,0.1-0.8-0.1-1.1-0.1C35.4,50,34.1,50.6,32.4,50.6z"/>
	<path class="st8" fill="#442823" d="M28.3,45.8c0,0-1.1,3.2-0.3,4.6l-1-0.4C27,49.9,27.8,46.8,28.3,45.8z"/>
	<path class="st8" fill="#442823" d="M36.7,45.8c0,0,1.1,3.2,0.3,4.6l1-0.4C38,49.9,37.3,46.8,36.7,45.8z"/>
	<path class="st3" fill="#CCAC8D" d="M25.7,29.7c-0.4,1.3-1.7,5.8,0.9,4.3c0,0-1.1,0.6-1.8,3c-0.7,2.4-2.5,2.7-2.5,2.7s-2.8,0.5-4.9-1.2
		c-1.8-1.5-2.1-4.2-1.3-6.3c0.7-2,2.1-2.7,4.1-3.1C22.1,28.6,26.1,28.2,25.7,29.7z"/>
	<path d="M32.5,42.4c1.1,0,4.7,2.4,4.7,5.5c0-0.1,0-0.1,0-0.2c0-3.1-2.9-5.6-4.7-5.6c-1.9,0-4.7,2.5-4.7,5.6c0,0.1,0,0.1,0,0.2
		C27.9,44.8,31.4,42.4,32.5,42.4z"/>
	<g>
		<ellipse transform="matrix(0.9683 -0.2497 0.2497 0.9683 -7.9113 9.4501)" class="st10" fill="#331712" cx="33.3" cy="35.9" rx="0.3" ry="0.6"/>
		<ellipse transform="matrix(0.9551 0.2963 -0.2963 0.9551 12.0513 -7.7088)" class="st10" fill="#331712" cx="31.5" cy="35.9" rx="0.3" ry="0.6"/>
	</g>
	<g>
		<circle cx="20.8" cy="34.5" r="3.7"/>
		<circle class="st4" fill="#FFFFFF" cx="21.8" cy="32.8" r="1"/>
	</g>
	<g>
		<path class="st9" fill="#7F4A41" d="M33.6,34.5c0,0-1,0.4-1.2,0.5c-0.3,0-1.2-0.5-1.2-0.5c0,0,0.8,0,1.2,0C32.8,34.5,33.6,34.5,33.6,34.5z"/>
	</g>
	<path class="st1" fill="#EFCCA3" d="M26.3,34.3c0,0-3.3,2.3-5.2,4.5c-1.8,2.3-1.8,2.7-1.8,2.7l1.3,0.6c0,0,1.8-3.5,4.1-4.8s2.6-2.4,2.6-2.4
		L26.3,34.3z"/>
	<path class="st3" fill="#CCAC8D" d="M19,27.6c0,0-1.1,3.1-3.7,4.4C15.3,32,19.2,31.5,19,27.6z"/>
	<path class="st3" fill="#CCAC8D" d="M45.5,27.6c0,0,1.1,3.1,3.7,4.4C49.2,32,45.3,31.5,45.5,27.6z"/>
	<path class="st3" fill="#CCAC8D" d="M38.6,33.4c0,0-2.6-2.6-5.9-2.7l-0.1,0c0,0,0.3,0,0.2,0c0,0,0.2,0,0.2,0v0c-4,0.1-5.8,2.7-5.8,2.7
		c2.9-2,4.8-2,5.8-2v0c0,0,0,0,0,0c0,0,0,0,0,0v0C33,31.4,35.6,31.4,38.6,33.4z"/>
	<path class="st3" fill="#CCAC8D" d="M35.6,27.9c0,0-1.4-1.8-3-1.8l-0.1,0c0,0,0.2,0,0.2,0c0,0,0.2,0,0.2,0v0c-2,0-2.9,1.8-2.9,1.8
		c1.5-1.4,2.9-1.3,2.9-1.3v0c0,0,0,0,0,0c0,0,0,0,0,0v0C33,26.6,34.2,26.5,35.6,27.9z"/>
	<path class="st3" fill="#CCAC8D" d="M20.8,40.9c0,0-2,1-3.4,0.4l0,0c0,0-0.2,0-0.2,0c0,0-0.2,0-0.2,0v0c-1-0.7-1.7-2.9-1.7-2.9
		S16.7,42.1,20.8,40.9z"/>
	<path class="st3" fill="#CCAC8D" d="M44,40.9c0,0,2,1,3.4,0.4l0,0c0,0-0.2,0-0.2,0c0,0-0.2,0-0.2,0v0c2-0.7,2.1-2.9,2.1-2.9S48,42.1,44,40.9z"/>
	<g>
		<path class="st3" fill="#CCAC8D" d="M23.1,27.4c1.1-0.2,2.9-0.3,4.3,0.2c1.8,0.6,0.4,3,0.7,3.1c0.4,0.1,0.9-1.6,4.3-1.4c3.4,0.2,3.8,1.7,4.3,1.4
			c0.5-0.2-0.5-4.2,4.7-3.3c0,0-5.3-1.4-5.1,2.4c0,0-3.1-2.4-7.4-0.2C28.9,29.6,30,25.9,23.1,27.4z"/>
	</g>
	<path class="st3" fill="#CCAC8D" d="M41.8,27.4c0.1,0,0.1,0,0.2,0C42,27.4,41.9,27.4,41.8,27.4z"/>
	<path class="st3" fill="#CCAC8D" d="M41.8,27.4C41.8,27.4,41.8,27.4,41.8,27.4C41.8,27.4,41.8,27.4,41.8,27.4z"/>
	<path class="st3" fill="#CCAC8D" d="M21.7,22.2c0,0-4.6,5.7-5.2,7.9c-0.7,2.2-1.2,11.4-1.8,12.7l-2.1-9l3.9-9.4L21.7,22.2z"/>
	<path class="st3" fill="#CCAC8D" d="M43.1,22.2c0,0,4.6,5.7,5.2,7.9c0.7,2.2,1.2,11.4,1.8,12.7l2.1-9l-3.9-9.4L43.1,22.2z"/>
	<path class="st7" fill="#56332B" d="M42.8,22.2c0,0,4.9,4.1,6.3,8.8c1.4,4.7,0.8,10.5,1.9,11.2c1.6,1,3.3-5,3.9-5.6c0.9-1,4-3.6,4.2-4.1
		c0.2-0.5-6.2-7.5-9.1-8.9C46.8,22,42.6,21.8,42.8,22.2z"/>
	<path class="st8" fill="#442823" d="M47,24.7c0,0,5.8,7.4,5.7,16.6l2.3-4.7C55,36.5,53,30.5,47,24.7z"/>
	<path class="st7" fill="#56332B" d="M21.7,22.2c0,0-4.9,4.1-6.3,8.8s-0.8,10.5-1.9,11.2c-1.6,1-3.3-5-3.9-5.6c-0.9-1-4-3.6-4.2-4.1
		c-0.2-0.5,6.2-7.5,9.1-8.9C17.7,22,21.9,21.8,21.7,22.2z"/>
	<path class="st8" fill="#442823" d="M17.5,24.7c0,0-5.8,7.4-5.7,16.6l-2.3-4.7C9.5,36.5,11.5,30.5,17.5,24.7z"/>
	<path class="st3" fill="#CCAC8D" d="M14.3,41.4c0,0,0.4,2.3,1.1,3c0.7,0.7,0.2-0.6,0.2-0.6s-0.7-0.4-0.6-3.3S14.3,41.4,14.3,41.4z"/>
	<path class="st3" fill="#CCAC8D" d="M50.3,41.4c0,0-0.4,2.3-1.1,3c-0.7,0.7-0.2-0.6-0.2-0.6s0.7-0.4,0.6-3.3C49.5,37.7,50.3,41.4,50.3,41.4z"/>
	<g>
		<circle class="st8" fill="#442823" cx="28.2" cy="39.7" r="0.3"/>
		<circle class="st8" fill="#442823" cx="26.2" cy="41.8" r="0.3"/>
		<circle class="st8" fill="#442823" cx="25.6" cy="39.7" r="0.3"/>
	</g>
	<g>
		<circle class="st8" fill="#442823" cx="36.4" cy="39.7" r="0.3"/>
		<circle class="st8" fill="#442823" cx="38.3" cy="41.8" r="0.3"/>
		<circle class="st8" fill="#442823" cx="38.9" cy="39.7" r="0.3"/>
	</g>
</g>
</symbol>
<symbol id="SASS" viewBox="0 0 48 48">
<path fill="#f06292" d="M39.867,25.956c-1.538,0.008-2.87,0.377-3.986,0.928c-0.408-0.815-0.822-1.532-0.891-2.065	c-0.081-0.622-0.175-0.994-0.077-1.735c0.098-0.741,0.527-1.791,0.521-1.87c-0.006-0.079-0.096-0.456-0.983-0.463	c-0.887-0.006-1.646,0.171-1.735,0.405c-0.089,0.234-0.26,0.761-0.366,1.311c-0.155,0.804-1.771,3.673-2.688,5.173	c-0.3-0.586-0.555-1.102-0.608-1.51c-0.081-0.622-0.175-0.994-0.077-1.735c0.098-0.741,0.527-1.791,0.521-1.87	c-0.006-0.079-0.096-0.456-0.983-0.463c-0.887-0.006-1.646,0.171-1.735,0.405c-0.089,0.234-0.185,0.781-0.366,1.311	c-0.182,0.529-2.329,5.314-2.892,6.555c-0.287,0.632-0.536,1.14-0.712,1.486c-0.001-0.001-0.001-0.002-0.001-0.002	s-0.011,0.023-0.029,0.062c-0.151,0.295-0.24,0.458-0.24,0.458s0.001,0.002,0.003,0.006c-0.12,0.217-0.248,0.418-0.311,0.418	c-0.044,0-0.133-0.577,0.019-1.369c0.32-1.66,1.087-4.248,1.08-4.338c-0.004-0.046,0.143-0.497-0.501-0.733	c-0.626-0.229-0.849,0.153-0.906,0.154c-0.055,0.001-0.096,0.135-0.096,0.135s0.697-2.911-1.33-2.911	c-1.268,0-3.024,1.387-3.889,2.644c-0.546,0.298-1.715,0.936-2.954,1.617c-0.476,0.262-0.962,0.529-1.423,0.783	c-0.031-0.035-0.063-0.069-0.095-0.104c-2.459-2.623-7.003-4.478-6.811-8.005c0.07-1.282,0.516-4.658,8.733-8.752	c6.731-3.354,12.12-2.431,13.051-0.386c1.33,2.923-2.88,8.354-9.87,9.138c-2.663,0.299-4.066-0.734-4.415-1.118	c-0.367-0.405-0.422-0.423-0.559-0.347c-0.223,0.124-0.082,0.481,0,0.694c0.209,0.543,1.065,1.506,2.525,1.986	c1.285,0.422,4.412,0.653,8.193-0.81c4.236-1.638,7.543-6.196,6.571-10.005c-0.988-3.874-7.412-5.148-13.492-2.988	C12.44,9.332,8.523,11.35,5.706,13.984c-3.349,3.132-3.883,5.859-3.663,6.998c0.782,4.048,6.361,6.684,8.595,8.637	c-0.11,0.061-0.214,0.118-0.308,0.17c-1.12,0.554-5.373,2.78-6.437,5.131c-1.207,2.667,0.192,4.581,1.118,4.839	c2.869,0.798,5.813-0.638,7.396-2.998c1.582-2.359,1.389-5.432,0.663-6.834c-0.009-0.017-0.019-0.034-0.028-0.052	c0.289-0.171,0.584-0.345,0.876-0.517c0.57-0.335,1.13-0.647,1.615-0.911c-0.272,0.744-0.471,1.637-0.574,2.926	c-0.122,1.514,0.499,3.471,1.311,4.241c0.358,0.339,0.788,0.347,1.06,0.347c0.945,0,1.376-0.786,1.851-1.716	c0.582-1.14,1.099-2.468,1.099-2.468s-0.648,3.586,1.118,3.586c0.644,0,1.291-0.835,1.58-1.26c0.001,0.005,0.001,0.007,0.001,0.007	s0.017-0.028,0.05-0.083c0.067-0.102,0.105-0.167,0.105-0.167s0.001-0.007,0.003-0.019c0.259-0.449,0.833-1.473,1.693-3.162	c1.112-2.182,2.178-4.916,2.178-4.916s0.099,0.668,0.424,1.774c0.191,0.65,0.597,1.369,0.918,2.059	c-0.258,0.358-0.416,0.563-0.416,0.563s0.001,0.004,0.004,0.011c-0.206,0.274-0.437,0.569-0.679,0.857	c-0.878,1.045-1.923,2.239-2.063,2.583c-0.165,0.406-0.126,0.704,0.193,0.945c0.233,0.175,0.647,0.203,1.08,0.174	c0.789-0.053,1.343-0.249,1.617-0.368c0.427-0.151,0.924-0.388,1.39-0.731c0.861-0.633,1.38-1.538,1.33-2.738	c-0.028-0.661-0.238-1.316-0.505-1.934c0.078-0.112,0.156-0.226,0.235-0.34c1.357-1.984,2.41-4.164,2.41-4.164	s0.099,0.668,0.424,1.774c0.164,0.559,0.489,1.17,0.781,1.768c-1.276,1.037-2.067,2.242-2.342,3.032	c-0.508,1.462-0.11,2.124,0.636,2.275c0.338,0.068,0.816-0.087,1.175-0.239c0.447-0.148,0.984-0.395,1.486-0.764	c0.861-0.633,1.689-1.519,1.639-2.718c-0.023-0.546-0.171-1.088-0.372-1.608c1.082-0.451,2.482-0.701,4.266-0.493	c3.827,0.447,4.577,2.836,4.434,3.836c-0.144,1-0.946,1.55-1.215,1.716c-0.268,0.166-0.35,0.224-0.328,0.347	c0.033,0.179,0.157,0.173,0.386,0.134c0.315-0.053,2.009-0.813,2.082-2.659C46.089,28.509,43.844,25.935,39.867,25.956z M10.37,35.9	c-1.268,1.383-3.038,1.905-3.798,1.465c-0.82-0.475-0.495-2.511,1.06-3.979c0.948-0.894,2.172-1.718,2.984-2.225	c0.185-0.111,0.456-0.274,0.786-0.472c0.055-0.031,0.086-0.048,0.086-0.048l-0.001-0.002c0.064-0.038,0.129-0.077,0.196-0.118	C12.25,32.61,11.701,34.449,10.37,35.9z M19.605,29.623c-0.441,1.076-1.365,3.83-1.928,3.682c-0.483-0.127-0.777-2.22-0.096-4.28	c0.342-1.037,1.074-2.276,1.504-2.757c0.692-0.774,1.454-1.027,1.639-0.713C20.959,25.955,19.882,28.948,19.605,29.623z M27.234,33.263c-0.187,0.098-0.359,0.159-0.438,0.112c-0.059-0.035,0.077-0.164,0.077-0.164s0.954-1.027,1.33-1.494	c0.219-0.272,0.472-0.595,0.748-0.955c0.002,0.036,0.003,0.072,0.003,0.107C28.952,32.099,27.764,32.929,27.234,33.263z M33.111,31.923c-0.14-0.099-0.116-0.42,0.343-1.421c0.18-0.393,0.592-1.054,1.306-1.686c0.083,0.26,0.133,0.509,0.132,0.741	C34.883,31.105,33.779,31.683,33.111,31.923z"></path>
</symbol>
<symbol id="JQuery" viewBox="0 0 172 172">
<g fill="none" fill-rule="nonzero" stroke="none" stroke-width="1" stroke-linecap="butt" stroke-linejoin="miter" stroke-miterlimit="10" stroke-dasharray="" stroke-dashoffset="0" font-family="none" font-weight="none" font-size="none" text-anchor="none" style="mix-blend-mode: normal"><path d="M0,172v-172h172v172z" fill="none"></path><g fill="#000000"><path d="M102.74313,10.34688c-0.36281,0.05375 -0.72563,0.16125 -1.075,0.3225c-2.95625,1.46469 -6.31563,5.81844 -6.96063,6.67844c-0.04031,0.05375 -0.08062,0.1075 -0.1075,0.16125c-3.31906,4.97187 -5.09281,10.79031 -5.16,16.85062c-0.04031,4.54188 0.84656,9.04344 2.64719,13.38375c4.1925,10.06469 12.9,18.39594 23.26031,22.29281c0.34938,0.12094 0.68531,0.24188 1.29,0.45688c0.05375,0.02687 0.56438,0.18812 0.645,0.20156l0.37625,0.13438c0.5375,0.17469 1.08844,0.34937 1.62594,0.45687c2.72781,0.55094 5.38844,0.86 7.88781,0.94063c0.43,0 0.86,0.01344 1.29,0.01344c18.85281,0 26.16281,-13.30312 28.595,-17.7375c0.24188,-0.43 0.41656,-0.77937 0.57781,-0.99437c0,-0.01344 0,-0.01344 0.01344,-0.02688c1.06156,-1.57219 0.65844,-3.70875 -0.91375,-4.78375c-1.55875,-1.06156 -3.69531,-0.65844 -4.77031,0.91375h-0.01344c-5.02562,7.40406 -13.62562,9.64813 -25.54469,6.69188c-0.88688,-0.215 -1.85438,-0.55094 -2.71438,-0.87344c-1.12875,-0.40312 -2.2575,-0.87344 -3.30562,-1.38406c-2.08281,-1.03469 -4.04469,-2.27094 -5.81844,-3.64156c-10.48125,-8.12969 -14.57969,-25.0475 -8.45219,-34.81656c0.81969,-1.30344 0.67188,-2.99656 -0.36281,-4.13875c-0.77938,-0.86 -1.90813,-1.24969 -3.01,-1.10187zM72.26688,17.2c-0.77938,-0.01344 -1.57219,0.24188 -2.21719,0.77938c-5.20031,4.23281 -10.52156,11.16656 -10.75,11.44875c-0.02687,0.05375 -0.05375,0.09406 -0.09406,0.14781c-9.40625,13.69281 -10.11844,33.17719 -1.80063,49.63813c1.30344,2.60687 2.78156,5.09281 4.35375,7.37719l0.47031,0.67188c1.33031,1.94844 2.82187,4.15219 4.73,5.87219c0.65844,0.7525 1.37062,1.47812 2.06937,2.17687l0.33594,0.34938l0.28219,0.28219c0.71219,0.68531 1.43781,1.38406 2.19031,2.05594h0.01344c0.05375,0.08063 0.13437,0.13438 0.20156,0.20156c0.84656,0.7525 1.70656,1.46469 2.84875,2.365l0.30906,0.22844c0.88688,0.71219 1.78719,1.38406 2.71438,2.0425c0.09406,0.06719 0.18812,0.13438 0.28219,0.20156c0.3225,0.215 0.645,0.41656 0.9675,0.645l0.3225,0.215l0.37625,0.24188c0.68531,0.45687 1.35719,0.87344 2.31125,1.42437c0.61813,0.37625 1.27656,0.7525 1.70656,0.9675c0.18812,0.1075 0.38969,0.215 0.86,0.47031l1.04812,0.55094c0.05375,0.02688 0.29563,0.13438 0.34938,0.16125c0.68531,0.34938 1.3975,0.68531 2.10969,1.00781l1.08844,0.48375c0.71219,0.30906 1.43781,0.60469 2.32469,0.94062l0.40312,0.14781c0.02688,0.02688 0.36281,0.14781 0.38969,0.16125c0.645,0.22844 1.30344,0.45688 1.96188,0.67188l1.505,0.49719c0.7525,0.25531 1.62594,0.55094 2.58,0.71219c4.68969,0.77938 9.245,1.1825 13.55844,1.1825c0.51063,0 1.02125,-0.01344 1.51844,-0.01344c37.97438,-0.83313 47.85094,-33.09656 47.945,-33.41906c0.47031,-1.62594 -0.29562,-3.35937 -1.8275,-4.085c-1.53187,-0.72562 -3.35937,-0.215 -4.31344,1.1825c-9.62125,14.05563 -27.81562,19.995 -46.34594,15.10375c-0.86,-0.215 -1.69313,-0.45687 -2.72781,-0.79281c-0.17469,-0.05375 -0.3225,-0.1075 -0.60469,-0.215c-0.60469,-0.18812 -1.19594,-0.38969 -1.86781,-0.645l-0.95406,-0.36281c-0.55094,-0.215 -1.10187,-0.43 -1.77375,-0.72563l-0.44344,-0.20156c-0.81969,-0.34937 -1.6125,-0.73906 -2.32469,-1.08844l-1.96188,-1.02125c-0.44344,-0.215 -0.83312,-0.45687 -1.43781,-0.81969l-0.33594,-0.18813l-0.33594,-0.20156c-0.49719,-0.29563 -0.99437,-0.60469 -1.45125,-0.92719l-0.3225,-0.20156c-0.02687,-0.01344 -0.29562,-0.20156 -0.3225,-0.22844c-0.40312,-0.25531 -0.79281,-0.51062 -1.16906,-0.7525c-0.83312,-0.59125 -1.65281,-1.20937 -2.60687,-1.96187l-0.37625,-0.30906c-8.86875,-7.08156 -15.42625,-16.54156 -18.50344,-26.68687c-2.86219,-9.31219 -0.73906,-21.5 5.68406,-32.59938c0.83313,-1.43781 0.52406,-3.26531 -0.7525,-4.34031c-0.63156,-0.5375 -1.41094,-0.81969 -2.19031,-0.81969zM34.41344,27.52c-0.81969,0 -1.65281,0.29563 -2.31125,0.88688c-6.57094,5.89906 -11.48906,13.545 -12.02656,14.41844c-14.05563,20.46531 -11.34125,52.27187 -1.69313,71.71594c0.18813,0.40313 0.38969,0.79281 0.59125,1.1825l0.13438,0.215c0.17469,0.38969 0.37625,0.79281 0.44344,0.87344c0.1075,0.25531 0.26875,0.5375 0.33594,0.61813c0.16125,0.33594 0.3225,0.63156 0.61813,1.14219l1.10187,1.89469c0.16125,0.25531 0.3225,0.52406 0.37625,0.61813c0.215,0.34937 0.44344,0.71219 0.67188,1.075l0.5375,0.86c0.16125,0.25531 0.3225,0.48375 0.43,0.61812c0.5375,0.83313 1.075,1.66625 1.66625,2.45906c0.02687,0.04031 0.05375,0.06719 0.08062,0.09406l0.215,0.29562c0.48375,0.69875 0.98094,1.37063 1.42438,1.92156l1.96187,2.48594c0.02688,0.02688 0.24188,0.28219 0.25531,0.30906l0.28219,0.3225c0.59125,0.72563 1.22281,1.45125 1.85438,2.15c0.09406,0.1075 0.18812,0.20156 0.28219,0.30906c0.60469,0.65844 1.22281,1.31687 1.86781,2.00219l0.61812,0.59125c0.51063,0.5375 1.02125,1.06156 1.55875,1.55875c0,0.01344 0.25531,0.25531 0.25531,0.25531l0.5375,0.49719c0.645,0.61813 1.31687,1.23625 1.8275,1.66625c0.02687,0.04031 0.51062,0.45688 0.55094,0.48375c0.63156,0.56438 1.26313,1.10188 1.90813,1.62594l3.29219,2.60688c0.55094,0.40312 1.11531,0.80625 1.76031,1.27656c0.215,0.16125 0.44344,0.3225 0.67187,0.47031c0.09406,0.08063 0.20156,0.16125 0.26875,0.20156l2.4725,1.65281c0.90031,0.59125 1.80063,1.14219 2.9025,1.80062l0.59125,0.33594c0.68531,0.40312 1.38406,0.80625 2.0425,1.15562c0.38969,0.215 0.77938,0.40313 1.11531,0.57781c0.47031,0.25531 0.98094,0.5375 1.76031,0.91375c0.06719,0.04031 0.61812,0.30906 0.68531,0.33594c0.77938,0.38969 1.57219,0.7525 2.56656,1.19594c0,0.01344 0.3225,0.16125 0.3225,0.16125c0.91375,0.38969 1.80063,0.76594 2.96969,1.23625c0.18813,0.08063 0.37625,0.14781 0.41656,0.16125c0.83313,0.3225 1.70656,0.645 2.41875,0.90031c0.06719,0.02688 0.43,0.17469 0.49719,0.20156c0.95406,0.3225 1.89469,0.63156 3.10406,1.00781c0.20156,0.06719 0.41656,0.13437 0.44344,0.13437l0.68531,0.215c0.83313,0.25531 1.66625,0.52406 2.56656,0.69875c6.39625,1.16906 12.64469,1.77375 18.55719,1.77375h0.01344c49.27531,0 64.97031,-39.65406 65.13156,-40.05719c0.60469,-1.59906 -0.05375,-3.39969 -1.55875,-4.23281c-1.47812,-0.81969 -3.35937,-0.43 -4.4075,0.92719c-12.64469,16.64906 -36.49625,22.83031 -63.80125,16.555c-0.65844,-0.16125 -1.33031,-0.34937 -1.98875,-0.55094l-1.29,-0.38969c-0.87344,-0.26875 -1.74687,-0.56438 -2.59344,-0.86c-0.01344,0 -0.40313,-0.14781 -0.40313,-0.14781c-0.7525,-0.25531 -1.505,-0.55094 -2.16344,-0.80625l-0.7525,-0.29562c-0.83312,-0.33594 -1.66625,-0.68531 -2.4725,-1.04813l-0.47031,-0.20156c-0.72562,-0.33594 -1.42437,-0.65844 -2.12312,-1.00781c-0.05375,-0.02688 -0.60469,-0.29563 -0.65844,-0.30906c-0.48375,-0.24188 -0.9675,-0.49719 -1.58563,-0.83313l-2.80844,-1.505c-0.28219,-0.18812 -0.57781,-0.36281 -0.86,-0.51062c-0.84656,-0.52406 -1.72,-1.04813 -2.58,-1.59906c-0.20156,-0.12094 -0.37625,-0.25531 -0.71219,-0.48375c-0.59125,-0.37625 -1.16906,-0.76594 -2.01563,-1.35719l-0.33594,-0.24188c-0.57781,-0.40312 -1.14219,-0.83312 -1.6125,-1.1825c-0.29563,-0.215 -0.59125,-0.45687 -1.075,-0.81969c-0.43,-0.33594 -0.86,-0.65844 -1.26313,-0.98094l-0.7525,-0.61813c-0.63156,-0.51062 -1.22281,-1.04812 -1.84094,-1.57219c-0.08062,-0.08062 -0.14781,-0.13437 -0.24187,-0.20156c-0.68531,-0.63156 -1.38406,-1.26312 -2.21719,-2.05594l-2.43219,-2.41875c-0.59125,-0.60469 -1.1825,-1.22281 -1.85437,-1.96187c-0.61813,-0.68531 -1.20938,-1.37063 -2.00219,-2.31125l-1.45125,-1.77375c-0.17469,-0.25531 -0.36281,-0.51063 -0.59125,-0.77938c-0.49719,-0.67187 -0.99437,-1.33031 -1.49156,-2.02906c-13.38375,-18.43625 -16.8775,-56.92125 -6.45,-71.01719c1.04812,-1.41094 0.86,-3.39969 -0.45688,-4.59562c-0.645,-0.59125 -1.47812,-0.88688 -2.29781,-0.88688z"></path></g></g>
</symbol>
<symbol id="Bootstrap" viewBox="0 0 48 48"><path fill="#673ab7" d="M42,37c0,2.762-2.238,5-5,5H11c-2.761,0-5-2.238-5-5V11c0-2.762,2.239-5,5-5h26c2.762,0,5,2.238,5,5 V37z"></path><path fill="#fff" d="M33.03,25.6c-0.65-0.9-1.59-1.52-2.8-1.85c0,0,1.02-0.37,1.94-1.75c0.55-0.88,0.83-1.94,0.83-3.18 c0-2.15-0.78-3.8-2.34-4.93C29.1,12.76,27.34,12,24.35,12H15v24h10.43c2.83-0.02,4.96-0.63,6.41-1.8c1.44-1.19,2.16-2.95,2.16-5.3 C34,27.6,33.68,26.5,33.03,25.6z M21,16c0,0,4.17,0,4.25,0c1.52,0,2.75,1.23,2.75,2.75c0,1.52-1.23,2.75-2.75,2.75 c-0.08,0-4.25,0-4.25,0V16z M26,32h-5v-6h5c1.66,0,3,1.34,3,3C29,30.66,27.66,32,26,32z"></path>
</symbol>
<symbol id="Gulp" viewBox="0 0 256 566" >
<path d="M197.28 548.749l5.427-90.43 14.985-25.58s-34.106 13.952-91.205 13.952c-57.1 0-90.689-13.694-90.689-13.694l16.794 27.904 5.941 87.848c0 9.418 31.059 17.052 69.374 17.052 38.313 0 69.373-7.634 69.373-17.052M180.161 126.454l11.391-45.025 63.081-66.376L238.007.892l-66.784 70.707-13.226 53.793a886.14 886.14 0 0 0-29.873-.497c-70.336 0-127.355 8.016-127.355 17.902 0 9.887 57.019 17.902 127.355 17.902 70.335 0 127.353-8.015 127.353-17.902 0-7.28-30.924-13.546-75.316-16.343" fill="#D34A47"/><path d="M173.535 151.669s-2.467.553-9.724.584c-7.259.03-12.413-.047-14.466-1.917-.552-.502-.854-1.499-.851-2.174.006-1.285.918-2.042 2.08-2.516l1.099 1.724c-.478.165-.751.36-.752.568-.004.976 7.422 1.644 13.102 1.572 5.681-.07 12.545-.538 12.551-1.5 0-.291-.519-.565-1.422-.781l1.094-1.712c1.472.457 2.757 1.34 2.754 2.868-.014 2.598-3.32 2.993-5.465 3.284" fill="#FFF"/><path d="M254.509 15.184c1.586-1.832-.821-6.518-5.376-10.465C244.576.774 239.596-.94 238.007.892c-1.587 1.832.821 6.518 5.378 10.463 4.555 3.946 9.537 5.662 11.124 3.829M194.246 327.865c-1.495-14.384 31.462-35.216 23.004-35.883-18.208 1.041-27.27 21.338-36.431 42.596-3.357 7.791-14.844 41.013-22.378 36.923-7.532-4.088 9.765-31.407 14.613-47.631-5.594 4.102-26.109 20.041-31.396 5.114-8.5 7.219-26.663 11.13-24.614-7.833-4.522 8.01-14.671 19.193-26.853 14.546-15.998-6.101 9.27-57.062 15.553-54.491 6.284 2.57-1.268 14.179-3.246 18.687-4.35 9.921-9.375 22.393-6.018 24.946 5.751 4.374 21.401-16.547 21.749-17.007 2.927-3.867 11.266-29.166 17.987-26.261 6.721 2.905-16.764 36.308-7.983 42.937 1.771 1.338 9.017-.825 13.425-5.594 2.852-3.085 1.871-9.918 11.378-32.59 9.507-22.671 17.98-50.905 24.5-48.754 6.52 2.15 1.146 16.641-1.193 22.043-10.976 25.354-29.956 67.241-21.005 64.07 8.951-3.17 13.612-3.356 22.377-13.613 8.765-10.257 8.361-27.152 14.203-26.793 5.844.36 4.863 5.777 3.446 9.902 5.75-6.58 27.256-20.438 32.448-6.713 6.15 16.249-30.769 39.72-21.564 38.523 8.975-1.167 23.515-10.376 29.723-18.749l17.088-153.626s-17.195 14.23-126.589 14.23c-109.395 0-124.811-13.934-124.811-13.934l14.548 140.224c7.722-21.947 26.059-66.339 54.963-64.849 13.148.678 30.7 25.995 15.665 26.853-6.364.362-7.01-12.637-14.546-14.546-5.438-1.378-13.009 3.043-17.902 7.833-9.758 9.55-30.745 47.229-27.972 66.014 3.533 23.949 33.048-8.322 38.042-17.903 3.517-6.749 5.893-26.745 13.585-24.647 7.693 2.098-.671 22.734-6.247 40.979-6.264 20.487-9.557 42.098-17.408 39.612-7.852-2.484 4.938-28.932 4.475-33.566-7.38 6.809-20.976 24.047-38.37 15.515l9.035 87.078s24.013 18.973 96.35 18.973c72.337 0 97.239-18.677 97.239-18.677l11.219-100.857c-9.179 8.938-38.229 24.81-40.089 6.919" fill="#D34A47"/>
</symbol>
<symbol id="Webpack" viewBox="0 0 128 128">
<path fill="#8ed6fb" d="M117.29,98.1,66.24,127V104.49L98,87,117.29,98.1Zm3.5-3.16V34.55L102.11,45.35V84.16l18.67,10.77ZM10.71,98.1l51,28.88V104.49L29.94,87Zm-3.5-3.16V34.55L25.89,45.35V84.16Zm2.19-64.3L61.76,1V22.76L28.21,41.21l-.27.15Zm109.18,0L66.24,1V22.76L99.79,41.2l.27.15,18.54-10.71Z"/><path fill="#1c78c0" d="M61.76,99.37,30.37,82.1V47.92L61.76,66Zm4.48,0L97.63,82.12V47.92L66.24,66ZM32.5,44,64,26.66,95.5,44,64,62.16,32.5,44Z"/>
</symbol>
<symbol id="Vue" viewBox="0 0 261.76 226.69">
<g transform="matrix(1.3333 0 0 -1.3333 -76.311 313.34)">
  <g transform="translate(178.06 235.01)">
    <path d="m0 0-22.669-39.264-22.669 39.264h-75.491l98.16-170.02 98.16 170.02z" fill="#41b883"/>
  </g>
  <g transform="translate(178.06 235.01)">
    <path d="m0 0-22.669-39.264-22.669 39.264h-36.227l58.896-102.01 58.896 102.01z" fill="#34495e"/>
  </g>
</g>
</symbol>
</svg>