<?xml version="1.0" standalone="no"?>
<svg xmlns="http://www.w3.org/2000/svg" viewBox="0 0 1440 320" preserveAspectRatio="none">
	<path fill="#fff" fill-opacity="1" d="M0,64L30,64C60,64,120,64,180,80C240,96,300,128,360,117.3C420,107,480,53,540,48C600,43,660,85,720,128C780,171,840,213,900,240C960,267,1020,277,1080,256C1140,235,1200,181,1260,170.7C1320,160,1380,192,1410,208L1440,224L1440,320L1410,320C1380,320,1320,320,1260,320C1200,320,1140,320,1080,320C1020,320,960,320,900,320C840,320,780,320,720,320C660,320,600,320,540,320C480,320,420,320,360,320C300,320,240,320,180,320C120,320,60,320,30,320L0,320Z"></path>
</svg>